{"glyphs":{":":{"x_min":0,"x_max":268,"ha":268,"o":"m 227 391 q 224 375 219 364 q 214 354 207 347 q 200 340 190 337 q 179 334 164 334 q 149 334 140 337 q 131 340 126 347 q 122 354 121 364 q 121 375 125 391 q 127 407 132 418 q 136 429 143 435 q 150 442 160 445 q 171 448 186 448 q 201 448 210 445 q 220 442 225 435 q 229 429 230 418 q 230 407 227 391 z m 159 52 q 156 36 152 25 q 147 15 140 8 q 132 1 122 -1 q 111 -4 96 -4 q 81 -4 72 -2 q 62 0 58 7 q 53 13 53 24 q 53 35 56 52 q 59 67 63 78 q 68 89 75 96 q 82 103 92 105 q 103 108 117 108 q 133 108 142 105 q 152 103 156 96 q 161 89 161 78 q 162 67 159 52 z"},"$":{"x_min":0,"x_max":507,"ha":507,"o":""},"?":{"x_min":0,"x_max":463,"ha":463,"o":"m 471 512 q 471 473 459 436 q 447 398 422 369 q 396 339 357 320 q 318 301 264 298 l 238 181 q 236 174 227 170 q 217 167 198 167 q 188 167 181 167 q 174 168 170 170 q 166 171 164 174 q 163 177 164 181 l 187 316 q 189 328 193 335 q 196 342 202 346 q 208 351 214 353 q 221 354 230 354 l 233 354 q 276 354 305 368 q 333 381 352 403 q 370 424 378 450 q 386 476 386 501 q 386 523 379 542 q 373 561 361 574 q 348 588 329 596 q 310 604 284 604 q 254 604 231 597 q 208 590 191 582 q 174 574 163 568 q 152 562 146 562 q 141 562 139 566 q 137 570 137 581 q 137 585 138 593 q 139 600 141 606 q 143 613 146 619 q 148 625 152 629 q 159 636 174 643 q 189 650 209 656 q 229 663 252 667 q 275 671 297 671 q 329 671 354 665 q 379 659 398 649 q 417 638 431 623 q 445 608 454 591 q 463 573 467 553 q 471 533 471 512 z m 230 76 q 230 69 229 60 q 228 50 225 41 q 223 31 219 23 q 215 14 210 9 q 203 2 192 -1 q 182 -5 165 -5 q 152 -5 144 -3 q 135 -1 131 3 q 126 6 124 12 q 122 18 122 25 q 122 32 123 41 q 125 50 127 60 q 129 70 133 79 q 137 88 143 93 q 150 101 161 104 q 171 106 187 106 q 201 106 209 104 q 218 102 223 98 q 228 94 229 88 q 230 83 230 76 z"},"<":{"x_min":0,"x_max":498,"ha":498,"o":"m 503 501 q 503 490 501 479 q 499 468 495 458 q 491 449 485 441 q 479 434 472 431 l 128 279 l 411 127 q 423 120 423 107 q 423 101 422 94 q 421 86 420 79 q 418 72 416 65 q 414 59 411 54 q 408 49 404 48 q 400 46 396 48 l 49 243 q 46 245 44 249 q 42 254 42 263 q 42 269 44 277 q 45 286 48 295 q 50 303 55 310 q 60 317 66 320 l 485 512 q 495 517 499 514 q 503 511 503 501 z"},"'":{"x_min":0,"x_max":221,"ha":221,"o":"m 184 440 q 182 433 174 429 q 167 425 149 425 q 140 425 135 426 q 129 427 126 429 q 123 431 122 434 q 121 437 121 440 l 156 667 q 157 674 168 678 q 179 682 202 682 q 225 682 234 678 q 243 674 241 667 z"},"=":{"x_min":0,"x_max":498,"ha":498,"o":"m 445 203 q 445 200 444 195 q 444 190 443 185 q 441 179 439 173 q 438 167 434 163 q 431 158 427 155 q 423 152 418 152 l 50 152 q 43 152 40 157 q 36 161 36 171 q 36 176 37 185 q 39 193 42 201 q 45 209 50 215 q 55 221 63 221 l 432 221 q 438 221 442 216 q 445 211 445 203 z m 483 393 q 483 390 482 385 q 482 380 481 375 q 479 369 478 363 q 476 357 472 353 q 469 348 465 345 q 461 342 456 342 l 87 342 q 82 342 78 346 q 74 351 74 361 q 74 366 75 375 q 77 383 80 391 q 83 399 88 405 q 93 411 101 411 l 470 411 q 477 411 480 406 q 483 401 483 393 z"},"a":{"x_min":0,"x_max":514,"ha":514,"o":"m 396 12 q 395 4 386 0 q 377 -3 356 -3 q 347 -3 340 -2 q 334 -1 330 1 q 326 2 325 5 q 323 8 325 12 l 341 95 q 334 80 318 61 q 301 42 279 27 q 256 11 228 1 q 200 -9 171 -9 q 132 -9 107 4 q 81 18 66 41 q 51 63 45 91 q 40 120 40 149 q 40 177 45 211 q 50 246 61 282 q 73 318 91 353 q 109 387 135 414 q 161 441 195 457 q 229 474 273 474 q 316 474 347 456 q 378 438 403 408 l 412 452 q 414 460 423 463 q 433 467 452 467 q 462 467 469 466 q 475 465 479 463 q 483 461 484 458 q 485 456 484 452 z m 381 337 q 358 371 332 387 q 305 404 272 404 q 246 404 224 392 q 203 379 187 359 q 170 338 158 312 q 146 286 139 258 q 131 230 128 204 q 124 177 124 155 q 124 138 127 121 q 129 104 137 91 q 145 77 158 68 q 171 60 192 60 q 219 60 246 74 q 273 89 296 116 q 320 142 338 178 q 356 213 365 256 z"},"L":{"x_min":0,"x_max":420,"ha":420,"o":"m 375 56 q 375 54 375 48 q 374 43 373 37 q 372 30 370 24 q 368 18 365 12 q 362 7 358 3 q 354 0 350 0 l 70 0 q 64 0 59 2 q 54 3 50 8 q 46 12 44 18 q 43 25 45 34 l 162 620 q 163 623 166 626 q 168 629 174 631 q 179 632 188 634 q 196 635 208 635 q 219 635 227 634 q 235 632 240 631 q 244 629 246 626 q 247 623 246 620 l 137 73 l 364 73 q 370 73 373 68 q 375 64 375 56 z"},"3":{"x_min":0,"x_max":507,"ha":507,"o":"m 438 202 q 438 178 431 153 q 425 128 412 104 q 399 81 379 60 q 358 40 330 24 q 301 9 265 0 q 228 -9 182 -9 q 157 -9 135 -6 q 114 -3 94 2 q 75 7 59 14 q 43 21 31 29 q 23 34 20 40 q 17 46 17 54 q 17 57 18 62 q 18 67 19 73 q 20 79 21 85 q 23 92 25 97 q 27 102 31 105 q 34 108 38 108 q 42 108 53 101 q 65 93 83 84 q 102 75 127 68 q 152 60 185 60 q 226 60 256 73 q 286 85 306 105 q 325 125 335 149 q 344 173 344 197 q 344 217 337 234 q 330 251 315 263 q 299 276 275 283 q 250 291 215 291 l 147 291 q 140 291 135 295 q 131 299 131 308 q 131 312 132 317 q 133 322 134 327 q 136 333 138 338 q 140 343 143 348 q 146 352 150 354 q 154 357 160 357 l 215 357 q 251 357 281 368 q 312 379 333 398 q 355 417 367 443 q 379 468 379 497 q 379 532 360 552 q 340 572 294 572 q 266 572 241 563 q 215 555 195 545 q 174 535 160 526 q 146 517 140 517 q 135 517 133 521 q 130 525 130 533 q 130 537 131 544 q 132 551 135 560 q 137 568 140 576 q 144 583 149 588 q 154 594 170 603 q 186 612 208 620 q 230 629 259 635 q 287 641 316 641 q 355 641 384 632 q 413 623 432 606 q 451 589 461 565 q 470 541 470 511 q 470 477 459 447 q 448 417 428 394 q 408 370 380 353 q 352 336 319 329 l 319 328 q 351 325 374 313 q 396 301 411 283 q 425 266 431 245 q 438 224 438 202 z"},";":{"x_min":0,"x_max":268,"ha":268,"o":"m 227 391 q 224 375 219 364 q 215 354 208 347 q 201 341 190 338 q 180 334 164 334 q 149 334 140 337 q 130 340 126 347 q 122 353 121 364 q 121 375 125 391 q 128 409 133 420 q 138 431 145 437 q 151 443 162 446 q 172 448 187 448 q 203 448 212 445 q 222 441 226 435 q 230 428 230 417 q 230 406 227 391 z m 165 84 q 165 56 152 28 q 139 0 116 -27 l 29 -127 q 26 -131 22 -133 q 18 -136 13 -137 q 7 -139 1 -140 q -6 -141 -15 -141 q -24 -141 -30 -140 q -35 -139 -37 -136 q -39 -134 -38 -131 q -37 -127 -33 -122 l 58 12 l 70 70 q 72 83 76 91 q 80 99 85 103 q 91 106 100 108 q 109 109 123 109 q 135 109 143 108 q 151 107 156 104 q 161 101 163 96 q 165 91 165 84 z"},"J":{"x_min":0,"x_max":319,"ha":319,"o":"m 222 152 q 215 118 203 88 q 190 59 171 37 q 151 16 124 3 q 96 -9 58 -9 q 35 -9 16 -5 q -3 -1 -16 5 q -29 11 -32 16 q -35 21 -35 28 q -35 31 -34 37 q -34 43 -32 49 q -31 56 -29 62 q -27 69 -24 75 q -22 80 -19 84 q -16 87 -13 87 q -7 87 -2 84 q 3 80 11 76 q 19 72 29 68 q 40 64 56 64 q 74 64 87 69 q 101 74 110 86 q 120 97 126 115 q 133 133 139 160 l 230 620 q 231 623 234 626 q 237 629 242 631 q 248 633 256 634 q 264 635 276 635 q 287 635 295 634 q 303 633 307 631 q 312 629 313 626 q 315 624 315 620 z"},"V":{"x_min":0,"x_max":567,"ha":567,"o":"m 297 15 q 293 9 290 6 q 286 2 279 0 q 273 -1 263 -2 q 253 -3 239 -3 q 223 -3 213 -2 q 203 -1 197 0 q 191 2 188 6 q 186 10 185 15 l 96 606 q 94 615 94 621 q 95 627 99 630 q 103 633 112 634 q 120 635 135 635 q 150 635 158 634 q 167 633 172 631 q 177 629 178 626 q 180 623 181 618 l 255 86 l 255 86 l 537 618 q 540 623 543 626 q 546 629 551 631 q 557 633 566 634 q 575 635 589 635 q 604 635 613 634 q 622 632 625 629 q 629 625 627 619 q 626 612 620 602 z"},"\"":{"x_min":0,"x_max":401,"ha":401,"o":"m 356 440 q 355 437 353 434 q 351 431 347 429 q 343 427 337 426 q 331 425 322 425 q 313 425 308 426 q 302 427 299 429 q 296 431 295 434 q 294 437 294 440 l 330 667 q 330 670 333 673 q 335 676 341 678 q 347 680 355 681 q 363 682 375 682 q 398 682 406 678 q 415 674 413 667 z m 183 440 q 182 437 180 434 q 178 431 174 429 q 170 427 164 426 q 157 425 148 425 q 140 425 134 426 q 128 427 125 429 q 123 431 122 434 q 121 437 121 440 l 156 667 q 157 670 159 673 q 162 676 168 678 q 173 680 182 681 q 190 682 201 682 q 225 682 233 678 q 242 674 240 667 z"},"7":{"x_min":0,"x_max":507,"ha":507,"o":"m 536 614 q 536 608 534 599 q 533 591 531 581 q 529 571 524 561 q 520 550 514 541 l 181 17 q 177 10 173 7 q 168 3 161 1 q 155 -1 146 -2 q 137 -3 124 -3 q 107 -3 98 -1 q 89 0 85 3 q 81 7 82 11 q 83 16 87 22 l 433 558 l 132 558 q 125 558 122 563 q 119 568 119 576 q 119 579 120 585 q 120 590 122 596 q 123 603 125 609 q 127 615 131 620 q 134 625 138 629 q 142 632 147 632 l 516 632 q 529 632 532 627 q 536 622 536 614 z"},"S":{"x_min":0,"x_max":452,"ha":452,"o":"m 450 584 q 450 580 449 575 q 449 570 448 564 q 446 559 445 552 q 443 546 440 542 q 438 537 435 534 q 432 531 428 531 q 422 531 413 538 q 403 544 388 551 q 374 558 353 564 q 333 571 306 571 q 276 571 253 562 q 231 553 216 537 q 201 522 193 502 q 186 483 186 462 q 186 440 195 424 q 205 408 220 395 q 235 382 255 370 q 275 358 295 346 q 316 334 336 320 q 356 306 371 288 q 387 270 396 246 q 406 222 406 191 q 406 149 389 113 q 372 77 340 50 q 309 22 264 7 q 220 -9 165 -9 q 135 -9 110 -4 q 84 1 63 9 q 43 16 29 24 q 15 32 8 39 q 2 45 2 57 q 2 60 3 65 q 3 71 5 77 q 6 83 8 90 q 10 96 12 101 q 15 106 18 109 q 21 112 26 112 q 34 112 45 104 q 57 97 74 88 q 92 79 116 71 q 140 63 172 63 q 206 63 233 73 q 260 82 278 98 q 296 115 306 137 q 316 159 316 184 q 316 206 307 222 q 297 238 282 251 q 267 265 247 276 q 228 287 207 299 q 187 312 167 325 q 148 339 133 358 q 118 376 108 400 q 99 423 99 455 q 99 494 114 527 q 129 561 157 586 q 185 612 224 626 q 264 641 312 641 q 336 641 357 637 q 378 633 396 628 q 413 622 425 615 q 437 609 441 604 q 446 600 448 595 q 450 591 450 584 z"},"}":{"x_min":0,"x_max":314,"ha":314,"o":"m -14 -139 q -14 -133 -12 -125 q -11 -118 -8 -111 q -5 -104 0 -99 q 4 -95 11 -95 l 26 -95 q 40 -95 50 -91 q 60 -86 68 -74 q 76 -62 83 -42 q 89 -21 96 13 l 119 127 q 124 155 133 180 q 142 206 156 226 q 170 246 190 260 q 209 273 235 279 q 216 283 205 293 q 193 304 186 318 q 179 332 176 347 q 173 362 173 376 q 173 390 175 403 q 176 416 179 428 l 199 526 q 202 545 204 561 q 206 576 206 587 q 206 609 199 617 q 191 625 178 625 l 156 625 q 148 625 145 630 q 142 634 142 641 q 142 644 143 650 q 144 655 146 661 q 147 667 150 672 q 152 677 155 680 q 157 682 160 684 q 163 685 168 686 q 173 687 179 687 q 186 688 195 688 q 220 688 236 681 q 253 675 263 664 q 273 652 277 636 q 281 620 281 599 q 281 586 279 566 q 277 545 271 519 l 252 423 q 250 414 249 401 q 247 389 247 379 q 247 365 250 353 q 253 340 259 330 q 265 320 275 314 q 286 308 300 306 q 307 305 309 302 q 312 298 312 291 q 312 287 311 281 q 310 275 308 270 q 307 265 304 260 q 302 255 300 253 q 296 249 290 248 q 283 246 274 244 q 266 242 255 237 q 245 232 234 221 q 219 207 209 183 q 199 160 193 130 l 167 -2 q 159 -41 149 -70 q 138 -99 122 -118 q 106 -138 83 -147 q 60 -157 28 -157 q 21 -157 14 -157 q 8 -157 3 -156 q -2 -155 -5 -154 q -9 -153 -11 -151 q -12 -149 -13 -146 q -14 -143 -14 -139 z"},"Z":{"x_min":0,"x_max":468,"ha":468,"o":"m 487 632 q 497 632 503 626 q 509 621 509 611 q 509 605 507 592 q 504 580 502 571 q 500 566 499 562 q 497 559 494 554 q 490 549 485 542 q 480 535 472 525 l 94 71 l 399 71 q 405 71 408 67 q 410 62 410 55 q 410 52 410 47 q 409 42 408 35 q 407 29 406 23 q 404 17 401 11 q 398 6 395 3 q 391 0 385 0 l 12 0 q 0 0 -6 7 q -12 13 -12 22 q -12 25 -11 31 q -10 36 -9 42 q -8 48 -6 54 q -5 60 -3 63 q -2 66 0 71 q 2 75 5 80 q 9 84 14 91 q 19 98 27 107 l 405 562 l 120 562 q 107 562 107 579 q 107 581 108 586 q 108 591 110 597 q 111 603 113 609 q 114 616 117 621 q 120 625 125 629 q 129 632 134 632 z"},"x":{"x_min":0,"x_max":433,"ha":433,"o":"m 272 236 l 368 21 q 371 15 370 10 q 369 5 364 2 q 358 0 349 -2 q 339 -3 324 -3 q 311 -3 303 -2 q 295 -1 291 0 q 286 2 285 5 q 283 7 282 11 l 208 184 l 70 11 q 67 7 64 5 q 61 2 55 0 q 49 -1 40 -2 q 31 -3 17 -3 q 2 -3 -6 -2 q -15 0 -19 2 q -23 5 -23 10 q -22 14 -17 21 l 166 238 l 75 443 q 72 450 73 454 q 73 459 78 462 q 83 465 92 466 q 101 467 116 467 q 130 467 138 466 q 146 465 150 464 q 154 462 156 460 q 157 458 159 454 l 229 290 l 360 454 q 363 457 366 459 q 369 462 375 464 q 380 465 388 466 q 396 467 409 467 q 424 467 433 466 q 442 465 447 462 q 451 460 450 455 q 450 451 443 444 z"},")":{"x_min":0,"x_max":303,"ha":303,"o":"m -15 -148 q 38 -68 75 11 q 112 90 135 167 q 159 243 169 313 q 180 384 180 448 q 180 474 178 502 q 177 531 174 560 q 170 589 165 617 q 160 646 153 671 q 152 676 152 680 q 153 685 156 688 q 159 690 167 692 q 174 693 186 693 q 195 693 201 692 q 207 691 211 690 q 215 689 217 687 q 219 685 220 682 q 238 626 250 563 q 261 500 261 426 q 261 363 251 296 q 241 228 217 155 q 193 83 155 5 q 117 -73 60 -156 q 57 -159 54 -161 q 51 -164 46 -165 q 41 -167 33 -168 q 25 -168 14 -168 q 2 -168 -4 -167 q -11 -166 -15 -163 q -18 -161 -18 -157 q -18 -153 -15 -148 z"},"&":{"x_min":0,"x_max":682,"ha":682,"o":"m 441 65 q 394 31 339 11 q 285 -9 225 -9 q 181 -9 146 1 q 112 11 88 30 q 63 49 51 76 q 38 103 38 136 q 38 166 47 196 q 57 225 78 253 q 99 281 132 307 q 165 333 211 356 q 198 381 189 403 q 180 424 176 441 q 171 459 169 473 q 167 487 167 497 q 167 513 171 532 q 175 550 185 569 q 194 587 209 604 q 224 620 247 633 q 269 646 300 654 q 330 661 370 661 q 416 661 446 652 q 477 642 496 626 q 515 611 523 591 q 531 572 531 552 q 531 523 521 497 q 511 471 487 445 q 463 419 423 392 q 382 365 321 336 q 336 311 351 289 q 366 267 382 247 q 397 227 414 208 q 430 188 449 167 q 476 198 493 232 q 511 265 518 292 q 525 318 526 327 q 527 335 530 339 q 532 343 537 345 q 542 347 549 348 q 557 349 569 349 q 590 349 598 346 q 606 344 606 337 q 606 331 602 310 q 597 290 589 265 q 582 241 569 216 q 556 190 539 165 q 522 140 501 118 q 532 88 552 75 q 573 62 588 62 q 598 62 602 59 q 605 56 604 48 q 604 45 604 38 q 603 31 601 24 q 599 16 596 10 q 594 3 590 0 q 587 -4 579 -6 q 570 -8 561 -8 q 552 -8 540 -4 q 529 0 514 8 q 500 17 482 31 q 464 45 441 65 z m 286 391 q 335 415 366 435 q 397 455 414 473 q 431 491 437 507 q 443 524 443 541 q 443 548 440 558 q 437 567 428 576 q 419 584 404 589 q 389 595 365 595 q 332 595 310 585 q 289 576 276 561 q 263 547 257 531 q 252 514 252 500 q 252 491 253 480 q 255 470 259 456 q 262 443 269 427 q 275 411 286 391 z m 246 299 q 217 284 195 267 q 172 250 157 232 q 142 213 134 192 q 126 170 126 146 q 126 130 131 114 q 137 99 150 86 q 163 74 185 67 q 206 60 238 60 q 258 60 278 64 q 298 68 318 75 q 337 82 355 92 q 373 102 388 114 q 367 136 349 158 q 331 180 313 202 q 296 225 279 249 q 263 272 246 299 z m 0 632 z"},"_":{"x_min":0,"x_max":498,"ha":498,"o":"m 427 -130 q 427 -133 427 -138 q 426 -143 425 -148 q 424 -153 422 -158 q 420 -164 417 -168 q 414 -173 411 -176 q 407 -178 402 -178 l -68 -178 q -74 -178 -77 -174 q -79 -169 -79 -162 q -79 -159 -79 -155 q -78 -150 -77 -145 q -76 -140 -74 -134 q -72 -128 -70 -124 q -67 -119 -63 -116 q -60 -113 -55 -113 l 415 -113 q 421 -113 424 -118 q 427 -123 427 -130 z"},"v":{"x_min":0,"x_max":446,"ha":446,"o":"m 455 456 q 455 451 453 446 q 452 440 450 435 q 432 382 409 327 q 386 273 359 219 q 331 165 298 113 q 265 61 226 13 q 223 7 218 4 q 214 1 208 0 q 202 -2 194 -2 q 186 -3 175 -3 q 160 -3 151 -2 q 142 -1 136 1 q 131 3 129 6 q 127 10 126 15 l 62 431 q 61 437 61 441 q 61 445 61 448 q 61 455 62 458 q 64 461 69 463 q 73 465 81 466 q 88 467 101 467 q 114 467 122 466 q 129 465 134 464 q 138 462 139 459 q 141 456 141 451 l 194 89 l 194 83 l 196 86 q 225 129 249 170 q 273 211 293 254 q 314 298 332 346 q 351 394 370 451 q 371 456 374 459 q 376 462 382 464 q 387 465 395 466 q 404 467 417 467 q 428 467 436 466 q 443 465 447 464 q 451 463 453 461 q 455 458 455 456 z"},"O":{"x_min":0,"x_max":654,"ha":654,"o":"m 634 420 q 634 382 627 336 q 620 290 604 242 q 588 194 561 149 q 535 104 496 69 q 457 34 403 12 q 349 -9 280 -9 q 224 -9 182 5 q 140 19 112 46 q 84 74 70 114 q 56 155 56 208 q 56 250 63 298 q 70 347 87 395 q 104 443 131 487 q 158 532 198 566 q 237 601 290 621 q 342 641 411 641 q 466 641 508 627 q 549 612 577 584 q 605 556 620 515 q 634 474 634 420 z m 544 414 q 544 448 536 477 q 528 505 511 526 q 494 546 466 558 q 438 569 397 569 q 347 569 308 551 q 270 532 242 501 q 214 471 196 433 q 177 395 166 355 q 155 316 151 280 q 146 243 146 216 q 146 182 154 154 q 161 125 179 105 q 196 85 224 74 q 252 63 293 63 q 343 63 381 82 q 419 100 447 130 q 475 160 494 198 q 512 235 523 274 q 535 313 539 350 q 544 386 544 414 z"},"(":{"x_min":0,"x_max":303,"ha":303,"o":"m 333 673 q 279 592 242 513 q 205 434 182 358 q 159 282 148 211 q 137 140 137 77 q 137 51 139 22 q 141 -6 144 -35 q 147 -64 152 -93 q 157 -122 164 -146 q 166 -152 165 -156 q 165 -161 162 -163 q 158 -166 151 -167 q 144 -168 131 -168 q 123 -168 117 -168 q 111 -167 107 -166 q 103 -165 100 -163 q 98 -161 97 -158 q 79 -102 68 -39 q 57 24 57 98 q 57 161 67 229 q 77 296 101 369 q 124 442 163 520 q 201 598 258 680 q 260 683 263 686 q 267 688 272 690 q 277 691 285 692 q 292 693 304 693 q 315 693 322 691 q 329 690 332 688 q 336 685 336 681 q 336 677 333 673 z"},"C":{"x_min":0,"x_max":522,"ha":522,"o":"m 559 567 q 559 557 556 542 q 552 527 547 518 q 541 509 535 509 q 528 509 519 518 q 509 527 494 538 q 478 548 453 557 q 429 566 392 566 q 351 566 317 551 q 283 536 256 510 q 229 483 208 449 q 188 415 175 378 q 161 340 154 302 q 147 264 147 230 q 147 191 157 160 q 167 130 186 109 q 204 88 231 77 q 258 66 292 66 q 330 66 358 75 q 385 83 405 94 q 425 104 438 113 q 451 122 459 122 q 465 122 467 118 q 470 114 470 106 q 470 104 469 99 q 468 94 467 89 q 466 83 465 77 q 464 71 462 65 q 460 60 458 55 q 456 50 450 45 q 445 41 429 31 q 413 21 389 13 q 365 4 336 -2 q 306 -8 273 -8 q 223 -8 183 7 q 143 22 115 51 q 87 80 72 123 q 56 167 56 223 q 56 269 66 318 q 76 367 95 414 q 114 460 142 501 q 171 542 209 573 q 247 604 294 622 q 341 640 398 640 q 434 640 465 632 q 496 624 518 611 q 540 599 549 590 q 559 580 559 567 z"},"W":{"x_min":0,"x_max":890,"ha":890,"o":"m 647 18 q 644 11 639 7 q 635 3 627 1 q 620 -1 610 -2 q 600 -3 585 -3 q 570 -3 560 -2 q 550 -1 543 1 q 537 3 534 7 q 531 11 531 17 l 493 496 l 492 496 l 276 18 q 274 11 269 7 q 265 3 258 1 q 252 -1 241 -2 q 231 -3 216 -3 q 199 -3 188 -2 q 178 -1 171 1 q 165 3 162 7 q 159 12 158 19 l 108 604 q 107 614 108 620 q 108 626 113 630 q 117 633 125 634 q 134 635 149 635 q 162 635 172 634 q 182 633 186 630 q 190 628 192 624 q 193 619 193 612 l 229 88 l 229 88 l 471 616 q 473 622 476 625 q 479 629 485 631 q 490 633 499 634 q 508 635 523 635 q 537 635 544 634 q 552 633 557 631 q 561 629 562 625 q 563 622 564 616 l 604 88 l 605 88 l 850 618 q 852 623 855 626 q 858 629 864 631 q 869 633 878 634 q 887 635 901 635 q 915 635 923 634 q 932 632 935 629 q 938 625 937 619 q 936 612 931 602 z"},"A":{"x_min":0,"x_max":579,"ha":579,"o":"m 518 30 q 519 19 518 12 q 518 6 513 2 q 508 -1 499 -2 q 489 -3 472 -3 q 461 -3 454 -2 q 446 -1 442 0 q 438 2 436 5 q 434 8 433 12 l 410 166 l 146 166 l 64 14 q 62 9 58 6 q 55 2 50 0 q 44 -1 35 -2 q 26 -3 13 -3 q -2 -3 -11 -2 q -20 0 -23 3 q -26 6 -25 13 q -23 20 -18 30 l 311 617 q 314 623 318 626 q 322 629 329 631 q 335 633 345 634 q 354 635 369 635 q 385 635 395 634 q 405 633 411 631 q 417 629 419 626 q 422 622 423 617 z m 353 548 l 353 548 l 182 233 l 400 233 z"},"f":{"x_min":0,"x_max":305,"ha":305,"o":"m 399 652 q 399 650 398 646 q 398 642 397 636 q 396 631 395 626 q 394 620 392 615 q 390 610 387 607 q 385 604 382 604 q 378 604 373 606 q 368 608 361 611 q 354 613 345 615 q 336 617 325 617 q 304 617 289 610 q 274 604 263 591 q 252 577 245 557 q 238 536 232 508 l 224 464 l 322 464 q 328 464 331 461 q 334 457 334 449 q 334 443 333 438 q 332 432 331 426 q 329 420 327 415 q 325 410 322 406 q 319 402 316 400 q 312 397 309 397 l 210 397 l 127 -19 q 119 -60 104 -90 q 90 -120 70 -139 q 49 -159 22 -169 q -4 -178 -38 -178 q -60 -178 -74 -175 q -88 -171 -91 -168 q -93 -166 -94 -163 q -95 -160 -95 -155 q -95 -153 -94 -149 q -94 -144 -93 -139 q -92 -134 -90 -128 q -89 -123 -87 -118 q -85 -113 -83 -110 q -80 -107 -77 -107 q -73 -107 -70 -108 q -67 -108 -63 -109 q -60 -110 -54 -111 q -49 -111 -42 -111 q -21 -111 -6 -105 q 9 -99 19 -85 q 30 -72 37 -51 q 44 -31 50 -2 l 130 397 l 67 397 q 62 397 60 401 q 57 404 57 413 q 57 417 58 422 q 58 428 59 434 q 61 439 62 445 q 64 450 67 455 q 70 459 73 462 q 77 464 82 464 l 143 464 l 155 525 q 163 565 178 595 q 192 625 213 645 q 234 665 261 674 q 288 684 321 684 q 332 684 343 682 q 355 681 365 679 q 375 677 383 674 q 390 671 393 668 q 396 666 397 661 q 399 657 399 652 z"},"Q":{"x_min":0,"x_max":664,"ha":664,"o":"m 629 -36 q 629 -40 629 -46 q 628 -52 626 -58 q 625 -64 623 -71 q 621 -77 618 -82 q 615 -86 611 -89 q 608 -92 604 -92 q 600 -92 590 -89 q 580 -86 567 -81 q 553 -75 536 -65 q 520 -56 501 -42 q 483 -29 464 -13 q 446 4 428 24 q 397 8 361 -1 q 325 -9 279 -9 q 224 -9 182 5 q 140 19 112 46 q 84 74 70 114 q 56 155 56 208 q 56 250 63 298 q 70 347 87 395 q 104 443 131 487 q 158 532 197 566 q 236 601 289 621 q 342 641 410 641 q 465 641 507 627 q 549 612 577 584 q 605 556 619 515 q 633 474 633 420 q 633 396 631 366 q 628 337 621 306 q 615 275 604 243 q 593 210 578 179 q 563 148 542 120 q 521 92 494 67 q 521 41 544 25 q 566 9 583 0 q 600 -8 610 -13 q 621 -17 624 -20 q 627 -23 628 -26 q 629 -29 629 -36 z m 543 414 q 543 448 536 477 q 528 505 511 526 q 494 546 466 558 q 438 569 397 569 q 346 569 308 551 q 270 532 242 501 q 214 471 195 433 q 177 395 166 355 q 155 316 150 280 q 146 243 146 216 q 146 182 153 154 q 161 125 178 105 q 196 85 224 74 q 252 63 293 63 q 343 63 381 82 q 419 100 447 130 q 475 160 493 198 q 512 235 523 274 q 534 313 539 350 q 543 386 543 414 z"},"w":{"x_min":0,"x_max":715,"ha":715,"o":"m 720 456 q 720 450 719 445 q 717 439 716 435 q 697 382 675 327 q 653 273 626 219 q 600 165 569 113 q 538 61 503 13 q 500 7 494 4 q 489 1 483 0 q 476 -2 468 -2 q 459 -3 449 -3 q 437 -3 428 -2 q 419 -1 414 1 q 409 3 407 6 q 405 10 405 15 l 372 337 l 224 16 q 222 11 218 7 q 214 3 208 1 q 201 -1 192 -2 q 182 -3 168 -3 q 155 -3 145 -2 q 135 -1 129 1 q 123 3 120 6 q 117 10 117 15 l 71 432 q 70 437 70 441 q 70 445 70 448 q 70 454 72 457 q 74 461 78 463 q 83 465 91 466 q 99 467 112 467 q 125 467 132 466 q 140 465 144 464 q 148 462 149 459 q 151 456 151 451 l 186 88 l 186 83 l 188 88 l 354 451 q 356 455 358 458 q 361 461 365 463 q 370 465 377 466 q 384 467 396 467 q 407 467 414 466 q 422 465 426 464 q 431 462 433 459 q 435 456 435 452 l 471 90 l 471 86 l 474 90 q 496 125 519 168 q 541 211 562 258 q 583 305 602 354 q 621 404 636 451 q 637 456 640 459 q 643 462 648 464 q 653 465 662 466 q 670 467 683 467 q 694 467 702 466 q 709 465 713 464 q 717 463 719 461 q 720 458 720 456 z"},"-":{"x_min":0,"x_max":306,"ha":306,"o":"m 278 264 q 278 261 278 256 q 277 251 276 245 q 274 240 272 234 q 271 229 268 224 q 265 219 261 216 q 257 213 252 213 l 47 213 q 41 213 38 217 q 35 222 35 230 q 35 233 36 238 q 36 242 37 248 q 39 253 41 259 q 42 265 45 270 q 48 274 52 277 q 56 280 61 280 l 266 280 q 272 280 275 275 q 278 271 278 264 z"},"E":{"x_min":0,"x_max":488,"ha":488,"o":"m 507 616 q 507 613 507 608 q 506 603 505 597 q 504 591 502 585 q 500 579 498 573 q 495 568 490 565 q 486 562 481 562 l 235 562 l 195 364 l 407 364 q 413 364 416 360 q 419 356 419 348 q 419 346 418 341 q 417 335 417 329 q 416 323 414 317 q 412 312 409 307 q 406 302 402 299 q 398 296 394 296 l 182 296 l 136 70 l 387 70 q 392 70 395 66 q 398 62 398 54 q 398 51 398 45 q 397 40 396 34 q 395 28 393 22 q 392 16 389 11 q 386 6 382 3 q 377 0 373 0 l 69 0 q 63 0 58 2 q 53 3 50 8 q 46 12 44 18 q 43 25 45 34 l 158 598 q 162 617 173 624 q 185 632 196 632 l 496 632 q 507 632 507 616 z"},"s":{"x_min":0,"x_max":389,"ha":389,"o":"m 365 428 q 365 423 363 415 q 362 407 359 399 q 356 391 353 386 q 349 380 345 380 q 339 380 331 385 q 323 390 311 396 q 299 401 283 406 q 267 411 244 411 q 223 411 206 405 q 189 399 178 388 q 167 378 161 365 q 155 351 155 336 q 155 317 168 304 q 181 291 201 281 q 220 271 243 260 q 266 250 285 236 q 304 222 317 201 q 330 181 330 150 q 330 116 317 87 q 303 57 278 36 q 253 15 217 3 q 182 -9 138 -9 q 115 -9 94 -6 q 74 -2 58 3 q 42 8 30 15 q 18 21 12 27 q 8 31 6 35 q 4 40 4 45 q 4 49 5 55 q 5 60 7 66 q 8 72 10 77 q 12 83 14 87 q 17 91 19 94 q 21 97 25 97 q 31 97 39 90 q 47 83 61 76 q 74 68 94 62 q 114 55 144 55 q 171 55 190 62 q 209 68 222 79 q 235 90 241 105 q 247 120 247 136 q 247 156 234 169 q 222 182 202 193 q 183 203 161 213 q 138 224 119 238 q 100 251 87 272 q 74 292 74 323 q 74 355 86 383 q 99 411 122 431 q 146 451 178 462 q 210 474 250 474 q 269 474 286 471 q 303 468 318 463 q 333 459 343 454 q 354 448 359 443 q 365 438 365 428 z"},">":{"x_min":0,"x_max":498,"ha":498,"o":"m 17 61 q 17 71 19 83 q 21 94 25 104 q 29 113 35 121 q 41 128 48 131 l 392 283 l 109 436 q 97 442 97 455 q 97 460 97 468 q 98 476 100 483 q 101 490 104 497 q 106 503 109 508 q 112 513 116 514 q 120 516 124 514 l 470 319 q 474 317 476 312 q 478 308 478 300 q 478 294 476 285 q 475 276 472 268 q 469 259 465 252 q 460 245 454 242 l 35 49 q 25 45 21 48 q 17 51 17 61 z"},"l":{"x_min":0,"x_max":229,"ha":229,"o":"m 112 12 q 111 8 109 6 q 106 3 102 1 q 97 -1 89 -2 q 81 -3 69 -3 q 57 -3 49 -2 q 42 -1 37 1 q 33 3 32 6 q 31 8 32 12 l 162 665 q 163 668 165 671 q 167 674 172 676 q 177 678 185 679 q 193 680 206 680 q 217 680 225 679 q 232 678 237 676 q 241 674 242 671 q 243 668 242 665 z"},"8":{"x_min":0,"x_max":507,"ha":507,"o":"m 454 183 q 454 161 448 138 q 442 115 430 93 q 417 72 398 53 q 378 35 351 21 q 323 7 287 -1 q 251 -9 206 -9 q 159 -9 124 1 q 89 11 67 28 q 44 46 33 70 q 22 94 22 121 q 22 154 34 183 q 46 212 69 237 q 92 262 125 284 q 159 306 203 326 q 155 353 133 385 q 112 417 112 458 q 112 480 117 502 q 123 524 135 544 q 146 564 164 582 q 182 600 206 613 q 231 626 262 634 q 294 641 333 641 q 383 641 415 629 q 446 618 465 600 q 484 582 491 561 q 499 540 499 520 q 499 487 487 459 q 476 432 455 408 q 435 384 406 365 q 377 345 341 328 q 372 311 393 294 q 415 278 428 260 q 441 242 448 223 q 454 204 454 183 z m 415 509 q 415 521 410 533 q 405 545 395 555 q 384 564 367 570 q 350 576 324 576 q 290 576 266 566 q 241 556 226 540 q 210 525 203 505 q 195 485 195 467 q 195 451 198 438 q 202 426 210 414 q 219 402 236 390 q 252 377 279 362 q 311 377 336 393 q 361 409 379 427 q 396 446 405 466 q 415 486 415 509 z m 368 176 q 368 191 363 205 q 357 219 345 233 q 333 247 313 260 q 293 274 266 290 q 219 270 189 250 q 159 231 141 212 q 123 193 115 174 q 108 154 108 132 q 108 117 113 103 q 119 89 131 79 q 144 68 165 62 q 187 56 218 56 q 258 56 286 66 q 314 77 333 94 q 351 110 360 132 q 368 153 368 176 z"},"\\":{"x_min":0,"x_max":384,"ha":384,"o":"m 313 -109 q 314 -117 314 -122 q 313 -127 309 -129 q 305 -132 297 -133 q 289 -134 276 -134 q 263 -134 255 -133 q 248 -132 243 -131 q 239 -130 237 -127 q 235 -124 234 -120 l 101 690 q 100 698 100 703 q 101 708 105 710 q 110 713 118 714 q 126 714 139 714 q 152 714 159 714 q 167 713 171 712 q 175 710 176 708 q 178 705 179 701 z"},"e":{"x_min":0,"x_max":478,"ha":478,"o":"m 452 362 q 452 328 436 301 q 420 274 387 255 q 354 236 302 226 q 250 216 178 216 l 126 216 q 123 200 122 185 q 121 169 121 156 q 121 107 145 82 q 169 56 223 56 q 254 56 279 60 q 304 65 323 70 q 341 76 353 80 q 364 85 369 85 q 373 85 375 82 q 377 79 377 73 q 377 68 376 61 q 375 54 374 47 q 372 40 368 34 q 365 27 361 23 q 355 17 341 11 q 326 6 305 1 q 285 -3 260 -6 q 236 -9 211 -9 q 168 -9 135 0 q 103 10 81 31 q 59 51 48 81 q 38 111 38 152 q 38 184 44 220 q 50 257 63 292 q 76 328 97 361 q 118 394 147 418 q 176 443 214 458 q 252 474 300 474 q 341 474 370 463 q 398 453 417 437 q 435 421 443 401 q 452 381 452 362 z m 369 354 q 369 379 350 395 q 330 410 294 410 q 262 410 238 399 q 213 388 195 370 q 176 351 162 326 q 149 302 141 274 l 190 274 q 242 274 276 281 q 311 287 331 298 q 352 309 361 324 q 369 338 369 354 z"},"b":{"x_min":0,"x_max":514,"ha":514,"o":"m 477 314 q 477 285 471 250 q 466 214 454 178 q 442 143 424 109 q 406 75 380 49 q 354 22 320 7 q 286 -9 243 -9 q 199 -9 168 7 q 137 24 112 55 l 104 12 q 103 4 93 0 q 83 -3 64 -3 q 43 -3 37 1 q 30 5 32 12 l 162 665 q 163 668 165 671 q 167 674 172 676 q 177 678 185 679 q 193 680 206 680 q 217 680 225 679 q 232 678 236 676 q 241 674 242 671 q 243 668 242 665 l 203 468 q 201 456 197 442 q 194 428 190 415 q 187 401 183 389 q 179 377 176 369 q 184 386 201 404 q 218 422 240 438 q 263 453 290 463 q 317 474 344 474 q 374 474 395 466 q 416 458 430 445 q 445 432 454 416 q 463 399 468 381 q 473 364 475 346 q 477 329 477 314 z m 392 308 q 392 321 390 338 q 387 355 380 370 q 373 384 360 394 q 346 404 324 404 q 297 404 270 389 q 243 374 219 347 q 196 321 177 285 q 159 249 151 207 l 135 125 q 158 92 184 76 q 210 60 244 60 q 269 60 290 71 q 310 83 327 103 q 343 122 355 147 q 368 172 376 200 q 384 228 388 255 q 392 283 392 308 z"},"%":{"x_min":0,"x_max":715,"ha":715,"o":""},"m":{"x_min":0,"x_max":791,"ha":791,"o":"m 675 12 q 675 8 672 6 q 670 3 665 1 q 660 -1 652 -2 q 644 -3 632 -3 q 620 -3 613 -2 q 605 -1 601 1 q 597 3 595 6 q 594 8 595 12 l 649 284 q 651 298 653 311 q 655 323 655 336 q 655 367 643 386 q 631 404 601 404 q 577 404 551 389 q 524 375 501 348 q 478 322 459 286 q 441 250 433 208 l 394 12 q 393 8 391 6 q 388 3 383 1 q 378 -1 370 -2 q 362 -3 350 -3 q 338 -3 331 -2 q 323 -1 319 1 q 315 3 314 6 q 312 8 313 12 l 367 284 q 371 298 372 312 q 373 327 373 339 q 373 369 361 386 q 349 404 319 404 q 294 404 269 389 q 243 375 219 348 q 196 322 178 286 q 160 250 151 208 l 112 12 q 111 8 109 6 q 106 3 102 1 q 97 -1 89 -2 q 81 -3 69 -3 q 57 -3 49 -2 q 42 -1 37 1 q 33 3 32 6 q 31 8 32 12 l 120 452 q 121 456 123 458 q 125 461 130 463 q 134 465 141 466 q 148 467 158 467 q 168 467 175 466 q 182 465 185 463 q 189 461 190 458 q 191 456 190 452 l 174 368 q 181 385 198 403 q 215 422 237 438 q 260 453 286 463 q 313 474 341 474 q 370 474 391 466 q 412 458 426 444 q 439 430 445 410 q 452 391 453 368 q 463 385 480 404 q 497 422 520 438 q 542 453 568 463 q 595 474 622 474 q 655 474 677 464 q 699 455 712 439 q 726 423 732 401 q 738 380 738 354 q 738 337 736 321 q 734 304 730 287 z"},"#":{"x_min":0,"x_max":498,"ha":498,"o":"m 523 448 q 523 443 521 436 q 520 428 517 420 q 514 413 510 407 q 505 401 498 401 l 435 401 l 382 240 l 439 240 q 445 240 448 235 q 451 231 451 223 q 451 218 450 210 q 448 202 445 195 q 442 188 438 183 q 433 178 426 178 l 361 178 l 308 11 q 305 3 296 0 q 287 -3 265 -3 q 254 -3 247 -2 q 241 -1 238 0 q 234 2 234 5 q 233 7 235 11 l 289 178 l 153 178 l 99 11 q 98 7 96 4 q 94 2 89 0 q 85 -1 78 -2 q 71 -3 60 -3 q 49 -3 42 -2 q 35 -1 31 0 q 27 2 27 5 q 26 7 27 11 l 81 178 l 24 178 q 13 178 13 194 q 13 199 14 207 q 15 214 18 222 q 21 229 25 235 q 30 240 37 240 l 102 240 l 154 401 l 96 401 q 89 401 86 406 q 83 411 83 419 q 83 426 85 434 q 87 442 90 448 q 93 455 98 459 q 102 464 107 464 l 174 464 l 226 621 q 226 625 229 627 q 231 630 236 632 q 241 633 249 634 q 257 635 268 635 q 279 635 285 634 q 292 633 295 631 q 298 629 298 627 q 299 624 298 621 l 247 464 l 382 464 l 433 621 q 434 628 443 631 q 451 635 473 635 q 484 635 491 634 q 498 633 501 631 q 504 629 505 627 q 506 624 505 621 l 455 464 l 511 464 q 517 464 520 459 q 523 455 523 448 z m 227 401 l 174 240 l 310 240 l 362 401 z"},",":{"x_min":0,"x_max":250,"ha":250,"o":"m 151 84 q 151 56 139 28 q 126 0 104 -27 l 16 -128 q 10 -135 0 -138 q -11 -142 -29 -142 q -38 -142 -43 -140 q -48 -139 -50 -137 q -52 -135 -52 -131 q -51 -127 -47 -122 l 44 12 l 56 70 q 58 83 62 91 q 66 99 72 103 q 78 106 87 108 q 96 109 110 109 q 122 109 130 108 q 138 107 143 104 q 147 101 149 96 q 151 91 151 84 z"},"n":{"x_min":0,"x_max":514,"ha":514,"o":"m 461 354 q 461 337 459 321 q 457 304 454 287 l 398 12 q 397 8 395 6 q 393 3 388 1 q 383 -1 375 -2 q 367 -3 355 -3 q 343 -3 336 -2 q 328 -1 324 1 q 320 3 319 6 q 317 8 318 12 l 372 284 q 375 299 377 313 q 378 327 378 338 q 378 368 365 386 q 353 404 323 404 q 297 404 270 389 q 243 375 219 348 q 196 322 178 286 q 160 250 151 208 l 112 12 q 111 8 109 6 q 106 3 102 1 q 97 -1 89 -2 q 81 -3 69 -3 q 57 -3 49 -2 q 42 -1 37 1 q 33 3 32 6 q 31 8 32 12 l 120 452 q 121 456 123 458 q 125 461 130 463 q 134 465 141 466 q 148 467 158 467 q 168 467 175 466 q 182 465 185 463 q 189 461 190 458 q 191 456 190 452 l 174 368 q 181 385 198 403 q 214 422 237 438 q 260 453 288 463 q 315 474 345 474 q 378 474 400 464 q 422 454 436 437 q 449 421 455 399 q 461 378 461 354 z"},"h":{"x_min":0,"x_max":514,"ha":514,"o":"m 399 12 q 398 8 396 6 q 393 3 388 1 q 383 -1 375 -2 q 367 -3 355 -3 q 343 -3 336 -2 q 328 -1 324 1 q 320 3 319 6 q 317 8 318 12 l 372 284 q 375 296 376 312 q 378 328 378 340 q 378 354 375 366 q 372 377 365 386 q 359 395 348 399 q 338 404 323 404 q 297 404 270 389 q 243 374 219 347 q 196 321 178 285 q 160 249 151 207 l 112 12 q 111 8 109 6 q 106 3 102 1 q 97 -1 89 -2 q 81 -3 69 -3 q 57 -3 49 -2 q 42 -1 37 1 q 33 3 32 6 q 31 8 32 12 l 162 665 q 163 668 165 671 q 167 674 172 676 q 177 678 185 679 q 193 680 206 680 q 217 680 225 679 q 232 678 237 676 q 241 674 242 671 q 243 668 242 665 l 203 466 q 201 453 197 440 q 194 427 190 414 q 187 401 183 389 q 179 377 176 369 q 184 386 201 404 q 217 422 240 438 q 262 453 289 463 q 316 474 345 474 q 376 474 398 465 q 420 456 434 440 q 448 424 455 402 q 461 380 461 354 q 461 337 459 320 q 457 304 454 287 z"},"z":{"x_min":0,"x_max":395,"ha":395,"o":"m 384 448 q 384 445 384 441 q 383 436 382 431 q 381 426 380 421 q 379 416 378 412 q 375 401 369 392 q 363 382 353 370 l 104 68 l 306 68 q 312 68 314 63 q 317 59 317 51 q 317 47 317 42 q 316 36 315 31 q 313 25 312 20 q 310 14 307 10 q 304 5 300 3 q 297 0 292 0 l 21 0 q 11 0 7 5 q 2 10 2 19 q 2 22 3 28 q 4 33 5 39 q 6 44 8 49 q 9 54 10 57 q 11 61 12 64 q 14 67 17 71 q 20 75 24 81 q 28 87 35 95 l 285 396 l 101 396 q 95 396 92 401 q 88 405 88 414 q 88 418 89 423 q 90 429 91 434 q 92 440 94 446 q 97 451 100 455 q 103 459 106 462 q 110 464 114 464 l 368 464 q 377 464 381 460 q 384 456 384 448 z"},"B":{"x_min":0,"x_max":544,"ha":544,"o":"m 513 509 q 513 479 505 452 q 497 426 482 403 q 467 381 446 364 q 425 347 398 335 q 418 332 436 321 q 454 311 467 296 q 479 280 487 259 q 494 238 494 213 q 494 187 487 161 q 480 135 466 111 q 452 87 431 67 q 411 47 383 32 q 355 17 321 8 q 286 0 241 0 l 73 0 q 57 0 49 8 q 41 16 45 34 l 158 598 q 161 617 173 624 q 186 632 199 632 l 334 632 q 383 632 416 624 q 448 616 470 600 q 492 584 502 562 q 513 539 513 509 z m 424 494 q 424 510 418 522 q 413 535 401 544 q 389 553 371 558 q 353 563 323 563 l 234 563 l 193 359 l 289 359 q 327 359 352 372 q 377 384 393 404 q 409 424 416 448 q 424 472 424 494 z m 405 207 q 405 248 376 270 q 347 292 287 292 l 179 292 l 135 69 l 253 69 q 293 69 321 81 q 348 92 367 111 q 385 130 395 155 q 405 180 405 207 z"},"K":{"x_min":0,"x_max":520,"ha":520,"o":"m 562 619 q 562 612 557 605 q 552 598 541 587 l 279 332 l 444 37 q 449 29 450 24 q 452 19 452 15 q 452 10 450 7 q 448 3 444 1 q 439 0 430 -2 q 422 -3 409 -3 q 395 -3 386 -2 q 378 -1 373 1 q 368 2 365 6 q 362 9 360 13 l 188 329 l 125 13 q 125 9 122 6 q 119 3 114 1 q 108 0 100 -2 q 92 -3 80 -3 q 68 -3 60 -2 q 52 0 47 1 q 43 3 42 6 q 40 9 41 13 l 162 620 q 163 623 166 626 q 168 629 174 631 q 179 632 188 634 q 196 635 208 635 q 219 635 227 634 q 235 632 240 631 q 244 629 246 626 q 247 623 247 620 l 190 338 l 467 619 q 471 623 475 626 q 480 629 486 631 q 492 633 501 634 q 510 635 521 635 q 534 635 542 634 q 550 632 554 630 q 559 628 560 625 q 562 623 562 619 z"},"R":{"x_min":0,"x_max":543,"ha":543,"o":"m 519 500 q 519 466 509 436 q 500 405 480 380 q 461 354 432 335 q 403 315 364 303 q 390 293 406 264 q 422 234 431 185 l 457 45 q 458 36 460 28 q 461 20 461 14 q 461 9 458 6 q 456 3 451 1 q 445 -1 436 -2 q 426 -3 413 -3 q 400 -3 392 -2 q 384 -1 380 1 q 376 4 374 8 q 373 11 372 18 l 347 166 q 343 192 336 213 q 329 234 316 249 q 303 265 283 273 q 264 282 235 282 l 179 282 l 125 12 q 124 9 122 6 q 119 3 114 1 q 108 0 100 -2 q 92 -3 80 -3 q 68 -3 60 -2 q 52 -1 48 1 q 43 2 42 5 q 40 8 41 12 l 158 598 q 162 617 174 624 q 186 632 200 632 l 337 632 q 382 632 416 623 q 450 614 473 597 q 496 581 507 556 q 519 531 519 500 z m 428 486 q 428 503 422 517 q 416 531 404 542 q 391 552 371 557 q 351 562 323 562 l 235 562 l 192 350 l 267 350 q 310 350 341 361 q 371 373 390 392 q 410 412 419 436 q 428 460 428 486 z"},"T":{"x_min":0,"x_max":487,"ha":487,"o":"m 556 615 q 556 612 556 607 q 556 602 554 596 q 553 590 551 583 q 549 577 546 572 q 543 567 539 564 q 535 561 530 561 l 353 561 l 243 13 q 242 9 239 6 q 236 3 231 1 q 226 0 218 -2 q 209 -3 197 -3 q 185 -3 177 -2 q 169 0 165 1 q 161 3 159 6 q 158 9 159 13 l 268 561 l 91 561 q 84 561 82 565 q 80 569 80 577 q 80 581 80 586 q 81 591 82 597 q 83 604 85 609 q 87 615 90 620 q 93 625 97 629 q 101 632 105 632 l 545 632 q 551 632 554 627 q 556 623 556 615 z"},"P":{"x_min":0,"x_max":517,"ha":517,"o":"m 520 483 q 520 458 513 429 q 507 401 494 374 q 481 347 461 323 q 440 298 412 280 q 383 261 345 251 q 308 240 257 240 l 170 240 l 125 12 q 124 9 122 6 q 119 3 114 1 q 108 0 100 -2 q 92 -3 80 -3 q 68 -3 61 -2 q 53 -1 48 1 q 43 2 42 5 q 40 8 41 12 l 157 596 q 161 615 173 624 q 186 632 202 632 l 326 632 q 351 632 369 630 q 388 628 406 625 q 432 619 453 606 q 475 594 489 576 q 504 559 512 535 q 520 512 520 483 z m 431 475 q 431 505 416 527 q 401 548 370 557 q 358 561 344 562 q 330 562 313 562 l 234 562 l 185 309 l 264 309 q 299 309 323 317 q 347 325 365 337 q 383 350 395 367 q 408 384 416 403 q 423 421 427 440 q 431 458 431 475 z"},"|":{"x_min":0,"x_max":460,"ha":460,"o":"m 190 -163 q 189 -167 187 -169 q 184 -172 179 -174 q 175 -176 167 -177 q 160 -178 149 -178 q 138 -178 131 -177 q 124 -176 120 -174 q 116 -172 115 -169 q 113 -167 114 -163 l 284 685 q 284 688 287 691 q 290 694 294 696 q 299 698 306 699 q 314 700 325 700 q 336 700 343 699 q 350 698 354 696 q 358 694 359 691 q 360 688 359 685 z"},"t":{"x_min":0,"x_max":335,"ha":335,"o":"m 346 447 q 346 442 346 437 q 345 432 344 427 q 342 421 340 416 q 337 411 335 406 q 332 402 329 400 q 325 397 321 397 l 208 397 l 159 152 q 157 142 156 129 q 154 117 154 108 q 154 83 165 72 q 175 61 199 61 q 212 61 222 63 q 231 65 239 67 q 246 70 251 72 q 256 74 260 74 q 264 74 266 72 q 269 69 269 62 q 269 55 267 48 q 266 40 264 33 q 262 25 259 20 q 256 14 253 10 q 249 7 241 3 q 233 0 223 -3 q 213 -5 201 -7 q 190 -8 179 -8 q 151 -8 131 -2 q 111 3 98 16 q 84 28 77 47 q 71 66 71 92 q 71 98 71 105 q 72 112 73 120 q 74 128 75 136 q 77 144 78 150 l 127 397 l 66 397 q 61 397 58 401 q 55 404 55 413 q 55 420 57 429 q 58 438 61 446 q 64 454 69 459 q 73 464 80 464 l 141 464 l 162 569 q 163 572 165 575 q 168 578 173 580 q 178 583 186 583 q 194 584 206 584 q 217 584 225 583 q 232 583 237 580 q 241 578 242 575 q 243 572 243 569 l 222 464 l 334 464 q 341 464 344 459 q 346 454 346 447 z"},"M":{"x_min":0,"x_max":855,"ha":855,"o":"m 728 12 q 727 9 725 6 q 722 3 717 1 q 712 0 704 -2 q 696 -3 684 -3 q 672 -3 665 -2 q 657 0 652 1 q 648 3 647 6 q 646 9 646 12 l 756 562 l 755 562 l 419 10 q 415 3 405 0 q 395 -3 375 -3 q 355 -3 347 1 q 338 4 338 10 l 233 563 l 232 563 l 122 12 q 121 9 119 6 q 116 3 111 1 q 106 0 98 -2 q 90 -3 78 -3 q 66 -3 59 -2 q 51 0 47 1 q 42 3 41 6 q 40 9 41 12 l 157 594 q 159 604 163 611 q 167 618 173 623 q 179 627 186 630 q 192 632 199 632 l 248 632 q 264 632 274 629 q 285 625 292 619 q 299 613 303 603 q 307 593 309 580 l 400 123 l 402 123 l 685 580 q 692 593 699 602 q 707 612 716 618 q 725 625 736 628 q 747 632 760 632 l 816 632 q 823 632 829 630 q 835 627 839 623 q 843 618 844 611 q 846 604 844 594 z"},"g":{"x_min":0,"x_max":514,"ha":514,"o":"m 389 -22 q 381 -62 364 -91 q 347 -120 320 -139 q 293 -159 256 -168 q 219 -178 172 -178 q 132 -178 98 -170 q 65 -162 45 -151 q 38 -146 35 -141 q 32 -137 32 -129 q 32 -126 32 -121 q 33 -116 34 -110 q 35 -105 37 -99 q 39 -93 41 -89 q 44 -84 48 -81 q 52 -79 56 -79 q 62 -79 71 -84 q 80 -89 94 -95 q 109 -102 131 -107 q 152 -112 184 -112 q 210 -112 232 -107 q 253 -102 269 -91 q 285 -80 295 -63 q 305 -47 310 -24 q 318 21 326 50 q 334 79 340 95 q 332 77 315 59 q 298 41 275 25 q 253 10 226 0 q 199 -9 171 -9 q 135 -9 109 3 q 84 15 69 36 q 53 58 46 87 q 40 116 40 149 q 40 178 45 213 q 50 249 62 284 q 74 320 92 354 q 110 388 136 415 q 162 441 196 458 q 230 474 273 474 q 316 474 347 456 q 378 438 403 408 l 412 452 q 414 460 423 463 q 433 467 452 467 q 462 467 469 466 q 475 465 479 463 q 483 461 484 458 q 485 456 484 452 z m 381 337 q 358 371 332 387 q 305 404 272 404 q 246 404 225 392 q 204 380 187 360 q 171 339 159 313 q 146 287 139 259 q 131 231 128 204 q 124 177 124 155 q 124 134 128 117 q 131 99 139 87 q 147 74 160 67 q 173 60 192 60 q 219 60 246 74 q 273 89 296 116 q 320 142 338 178 q 356 214 365 256 z"},"j":{"x_min":0,"x_max":239,"ha":239,"o":"m 248 600 q 245 586 241 577 q 237 567 230 562 q 224 556 214 554 q 204 551 189 551 q 175 551 166 554 q 157 556 152 562 q 147 567 147 577 q 146 586 149 600 q 152 613 156 622 q 160 631 167 637 q 174 644 184 646 q 193 648 208 648 q 223 648 232 646 q 241 644 246 637 q 250 631 250 622 q 251 613 248 600 z m 115 -17 q 107 -55 96 -85 q 84 -115 65 -135 q 47 -156 21 -167 q -6 -178 -42 -178 q -62 -178 -75 -175 q -89 -172 -92 -169 q -94 -167 -95 -164 q -96 -161 -96 -156 q -96 -154 -95 -149 q -95 -145 -94 -139 q -93 -134 -91 -128 q -90 -122 -87 -117 q -85 -113 -82 -110 q -79 -107 -76 -107 q -72 -107 -70 -107 q -67 -108 -64 -108 q -62 -108 -57 -109 q -52 -109 -45 -109 q -29 -109 -16 -105 q -3 -100 6 -89 q 16 -78 22 -60 q 29 -42 35 -15 l 128 452 q 129 455 131 458 q 134 461 139 463 q 144 465 152 466 q 160 467 172 467 q 183 467 191 466 q 199 465 203 463 q 207 461 208 458 q 209 455 209 452 z"},"i":{"x_min":0,"x_max":229,"ha":229,"o":"m 239 600 q 236 586 232 577 q 228 567 221 562 q 214 556 204 554 q 194 551 179 551 q 165 551 156 554 q 146 556 142 562 q 138 567 137 577 q 137 586 139 600 q 142 613 146 622 q 151 631 157 637 q 164 644 174 646 q 185 648 199 648 q 213 648 222 646 q 231 644 236 637 q 241 631 241 622 q 242 613 239 600 z m 112 12 q 111 8 109 6 q 106 3 102 1 q 97 -1 89 -2 q 81 -3 69 -3 q 57 -3 49 -2 q 42 -1 37 1 q 33 3 32 6 q 31 8 32 12 l 119 452 q 120 455 122 458 q 125 461 129 463 q 134 465 142 466 q 150 467 163 467 q 174 467 182 466 q 189 465 194 463 q 198 461 199 458 q 200 455 200 452 z"},"y":{"x_min":0,"x_max":447,"ha":447,"o":"m 455 455 q 455 450 454 444 q 453 438 450 434 q 434 389 415 341 q 396 293 371 240 q 345 188 311 131 q 277 74 230 11 l 104 -162 q 101 -166 97 -168 q 92 -171 86 -174 q 80 -176 71 -177 q 62 -178 49 -178 q 36 -178 28 -177 q 19 -175 15 -172 q 10 -169 11 -165 q 11 -160 17 -153 l 136 0 l 63 429 q 62 435 62 440 q 61 445 61 448 q 61 454 63 457 q 64 461 69 463 q 74 465 82 466 q 90 467 102 467 q 115 467 123 466 q 130 465 135 464 q 139 462 140 458 q 142 455 143 450 l 200 92 l 201 92 q 231 134 255 178 q 280 222 300 267 q 321 312 338 359 q 355 405 371 452 q 372 456 374 459 q 377 461 382 463 q 387 465 396 466 q 405 467 418 467 q 440 467 447 464 q 455 461 455 455 z"},"@":{"x_min":0,"x_max":894,"ha":894,"o":"m 831 417 q 831 390 826 354 q 821 319 810 281 q 799 244 782 208 q 764 171 739 143 q 713 115 680 98 q 646 81 603 81 q 580 81 562 86 q 544 92 532 104 q 520 115 514 132 q 509 148 510 169 q 496 147 476 131 q 457 114 437 103 q 416 92 396 86 q 375 81 357 81 q 338 81 323 84 q 309 88 298 96 q 287 103 279 113 q 271 124 267 136 q 262 149 260 164 q 258 178 258 195 q 258 220 263 250 q 269 280 280 311 q 292 341 309 370 q 326 399 350 422 q 374 444 404 458 q 434 472 471 472 q 487 472 501 468 q 515 464 528 456 q 540 448 551 437 q 562 425 573 409 l 586 452 q 588 459 595 462 q 603 466 621 466 q 639 466 645 462 q 651 459 649 452 l 582 241 q 566 190 574 167 q 583 144 616 144 q 639 144 658 156 q 678 169 693 191 q 709 213 721 241 q 732 269 740 298 q 748 328 752 358 q 756 387 756 412 q 756 445 746 476 q 736 507 711 531 q 687 555 645 569 q 603 583 538 583 q 474 583 423 568 q 372 552 332 526 q 293 500 265 467 q 236 433 216 395 q 196 358 184 320 q 171 282 164 248 q 157 214 155 186 q 152 158 152 143 q 152 118 156 94 q 160 70 169 48 q 179 26 196 8 q 213 -11 240 -25 q 266 -39 304 -46 q 342 -54 394 -54 q 431 -54 461 -50 q 490 -45 512 -41 q 533 -36 546 -31 q 560 -27 563 -27 q 569 -27 571 -31 q 573 -35 573 -42 q 573 -48 572 -55 q 570 -62 568 -68 q 566 -75 563 -81 q 561 -86 557 -90 q 554 -94 539 -99 q 524 -104 501 -108 q 478 -113 447 -116 q 416 -119 381 -119 q 320 -119 274 -109 q 228 -99 194 -82 q 160 -64 138 -41 q 116 -17 102 11 q 89 40 83 71 q 78 102 78 134 q 78 156 82 189 q 85 223 94 263 q 104 304 119 348 q 135 392 160 435 q 185 477 220 516 q 255 555 303 584 q 350 613 411 630 q 472 647 549 647 q 623 647 677 630 q 730 613 764 583 q 798 552 814 510 q 831 467 831 417 z m 542 345 q 527 376 510 392 q 493 408 468 408 q 446 408 428 398 q 409 387 394 370 q 379 354 368 332 q 356 310 349 288 q 341 266 337 244 q 333 223 333 207 q 333 175 344 160 q 355 146 380 146 q 397 146 418 157 q 440 168 460 188 q 481 208 498 234 q 516 260 524 290 z m 0 632 z"},".":{"x_min":0,"x_max":252,"ha":252,"o":"m 146 75 q 146 68 144 59 q 143 49 141 40 q 138 30 135 21 q 131 13 125 7 q 119 1 108 -1 q 98 -4 81 -4 q 67 -4 59 -2 q 50 0 45 4 q 40 9 38 15 q 36 22 36 30 q 36 38 37 48 q 39 57 41 66 q 44 76 48 84 q 51 92 57 97 q 62 103 73 106 q 83 109 101 109 q 115 109 124 107 q 132 104 137 100 q 142 95 144 89 q 146 83 146 75 z"},"p":{"x_min":0,"x_max":514,"ha":514,"o":"m 477 314 q 477 286 471 251 q 466 215 454 179 q 442 143 424 109 q 406 75 380 49 q 354 22 320 7 q 286 -9 243 -9 q 221 -9 203 -5 q 185 0 170 7 q 155 15 142 26 q 129 36 119 49 l 77 -162 q 76 -166 74 -169 q 72 -172 67 -174 q 62 -176 54 -177 q 46 -178 34 -178 q 22 -178 15 -177 q 7 -176 3 -174 q -1 -172 -3 -169 q -4 -166 -3 -162 l 120 452 q 121 460 130 463 q 139 467 159 467 q 169 467 176 466 q 182 465 186 464 q 190 462 191 459 q 192 456 191 452 l 175 369 q 182 385 198 403 q 214 421 237 437 q 260 453 288 463 q 315 474 344 474 q 381 474 406 461 q 432 448 447 427 q 463 406 470 377 q 477 348 477 314 z m 392 309 q 392 330 388 348 q 385 365 377 378 q 369 391 356 397 q 343 404 324 404 q 297 404 270 390 q 243 375 219 349 q 196 322 177 286 q 159 250 151 208 l 135 127 q 158 93 184 76 q 210 60 244 60 q 270 60 291 72 q 312 84 328 104 q 345 125 357 151 q 369 177 377 205 q 385 232 388 260 q 392 287 392 309 z"},"X":{"x_min":0,"x_max":519,"ha":519,"o":"m 333 323 l 451 31 q 454 20 454 13 q 455 7 450 3 q 445 0 435 -2 q 425 -3 408 -3 q 394 -3 386 -2 q 377 -1 373 0 q 368 2 366 5 q 364 8 363 12 l 267 266 l 76 12 q 72 8 69 5 q 65 2 59 0 q 53 -1 44 -2 q 35 -3 21 -3 q 4 -3 -6 -2 q -16 0 -19 3 q -23 7 -21 13 q -18 20 -10 30 l 224 325 l 116 602 q 112 612 112 619 q 112 625 117 629 q 122 632 132 634 q 143 635 159 635 q 172 635 180 634 q 188 633 193 631 q 198 628 200 625 q 203 621 205 615 l 291 384 l 469 620 q 472 624 476 627 q 479 630 485 632 q 491 633 500 634 q 508 635 522 635 q 539 635 549 634 q 559 632 562 629 q 566 625 564 619 q 562 612 554 602 z"},"*":{"x_min":0,"x_max":498,"ha":498,"o":"m 479 600 q 487 581 486 571 q 484 561 477 558 l 350 507 l 455 454 q 461 451 459 443 q 458 435 444 417 q 429 397 422 393 q 414 390 409 395 l 318 469 l 307 341 q 307 334 298 330 q 290 326 269 326 q 246 326 238 330 q 230 334 233 341 l 273 469 l 158 395 q 149 388 142 393 q 135 398 128 417 q 120 437 122 447 q 123 457 130 459 l 259 511 l 156 561 q 151 562 149 565 q 147 568 148 573 q 148 578 152 584 q 156 591 163 600 q 170 610 176 616 q 182 622 186 624 q 190 626 194 625 q 198 625 202 621 l 288 548 l 300 676 q 300 684 309 688 q 317 691 338 691 q 362 691 369 688 q 376 684 374 676 l 333 548 l 452 625 q 459 629 466 624 q 473 619 479 600 z"},"Y":{"x_min":0,"x_max":487,"ha":487,"o":"m 289 246 l 243 12 q 242 9 239 6 q 236 3 231 1 q 226 0 217 -2 q 209 -3 197 -3 q 185 -3 177 -2 q 169 0 165 1 q 161 3 159 6 q 158 9 158 12 l 205 246 l 98 602 q 95 613 94 619 q 93 625 97 629 q 101 632 110 634 q 119 635 136 635 q 149 635 158 634 q 166 633 171 631 q 176 628 178 625 q 180 621 182 615 l 232 441 q 241 411 248 383 q 255 355 261 325 l 262 325 q 280 354 298 383 q 316 412 336 441 l 456 617 q 458 622 462 625 q 466 629 472 631 q 478 633 486 634 q 495 635 510 635 q 527 635 537 633 q 546 631 549 627 q 551 624 548 617 q 545 611 539 602 z"},"c":{"x_min":0,"x_max":416,"ha":416,"o":"m 417 413 q 417 404 415 395 q 414 386 410 378 q 407 370 402 364 q 397 359 392 359 q 385 359 377 366 q 370 373 358 382 q 346 391 328 398 q 310 405 281 405 q 250 405 226 392 q 202 379 184 359 q 166 338 154 312 q 143 285 135 258 q 128 231 125 206 q 122 181 122 163 q 122 112 144 86 q 166 61 209 61 q 241 61 263 68 q 286 76 302 86 q 318 96 328 104 q 338 112 346 112 q 350 112 352 108 q 354 104 354 98 q 354 92 354 84 q 353 76 350 67 q 348 59 345 51 q 342 44 336 38 q 330 32 315 23 q 301 14 281 7 q 262 0 240 -5 q 217 -9 193 -9 q 115 -9 76 31 q 37 71 37 150 q 37 180 42 215 q 47 250 60 286 q 72 322 91 356 q 110 390 138 416 q 166 442 202 458 q 239 473 286 473 q 306 473 324 470 q 342 467 358 461 q 374 456 386 448 q 399 440 406 434 q 414 427 415 423 q 417 418 417 413 z"},"!":{"x_min":0,"x_max":326,"ha":326,"o":"m 208 182 q 207 178 205 175 q 202 172 197 170 q 192 168 185 167 q 178 167 168 167 q 157 167 151 167 q 145 168 141 170 q 137 172 136 175 q 135 178 136 182 l 220 648 q 222 654 225 659 q 228 663 233 666 q 239 668 248 670 q 257 671 270 671 q 283 671 291 670 q 299 668 304 666 q 309 663 310 658 q 311 654 309 648 z m 200 76 q 200 69 199 60 q 197 50 195 41 q 192 31 188 23 q 185 14 179 9 q 172 2 162 -1 q 151 -5 134 -5 q 121 -5 113 -3 q 104 -1 99 3 q 95 6 93 12 q 91 18 91 25 q 91 32 93 41 q 94 50 96 60 q 99 70 103 79 q 106 88 111 93 q 119 101 129 104 q 140 106 156 106 q 170 106 179 104 q 188 102 192 98 q 197 94 198 88 q 200 83 200 76 z"},"/":{"x_min":0,"x_max":388,"ha":388,"o":"m 16 -118 q 13 -124 9 -128 q 4 -131 -1 -133 q -7 -135 -15 -136 q -22 -137 -33 -137 q -46 -137 -54 -135 q -62 -134 -66 -131 q -70 -127 -70 -123 q -69 -118 -65 -112 l 392 698 q 396 705 400 708 q 404 712 409 714 q 415 716 423 717 q 431 718 441 718 q 454 718 462 716 q 470 714 474 711 q 478 708 478 704 q 478 699 474 692 z"},"[":{"x_min":0,"x_max":307,"ha":307,"o":"m 350 669 q 350 667 349 662 q 349 658 348 653 q 347 648 345 643 q 343 637 341 633 q 338 629 335 626 q 332 624 328 624 l 249 624 l 104 -97 l 184 -97 q 189 -97 191 -101 q 194 -104 194 -111 q 194 -114 193 -119 q 193 -123 192 -128 q 190 -133 189 -138 q 187 -144 185 -148 q 182 -152 179 -154 q 176 -156 172 -156 l 47 -156 q 41 -156 36 -155 q 31 -153 28 -149 q 24 -145 22 -138 q 21 -132 23 -122 l 177 649 q 181 668 193 676 q 204 683 216 683 l 340 683 q 350 683 350 669 z"},"6":{"x_min":0,"x_max":507,"ha":507,"o":"m 467 251 q 467 224 461 194 q 455 164 442 135 q 430 106 410 80 q 391 54 362 34 q 334 14 297 2 q 260 -9 213 -9 q 169 -9 138 4 q 108 17 88 40 q 69 62 60 94 q 52 126 52 165 q 52 184 54 214 q 57 244 63 281 q 69 319 80 360 q 91 400 109 440 q 126 480 151 516 q 176 553 210 580 q 244 608 288 624 q 333 641 388 641 q 419 641 445 636 q 471 631 489 624 q 501 619 505 614 q 509 609 509 600 q 509 597 509 592 q 508 587 507 582 q 506 577 505 571 q 503 566 501 562 q 499 557 495 554 q 492 552 488 552 q 482 552 474 555 q 466 559 454 563 q 441 567 423 570 q 405 574 381 574 q 335 574 299 555 q 263 537 236 506 q 209 475 190 435 q 171 395 161 350 q 189 365 226 376 q 263 388 310 388 q 352 388 382 377 q 411 366 430 348 q 449 330 458 305 q 467 280 467 251 z m 381 240 q 381 258 376 273 q 371 289 360 299 q 349 310 331 316 q 312 321 288 321 q 270 321 251 318 q 232 315 214 310 q 196 304 179 297 q 163 289 148 280 q 141 247 138 219 q 136 192 136 170 q 136 110 159 84 q 183 59 228 59 q 254 59 275 67 q 297 75 314 89 q 331 103 344 121 q 356 139 364 159 q 373 180 377 200 q 381 221 381 240 z"},"r":{"x_min":0,"x_max":343,"ha":343,"o":"m 368 451 q 368 449 367 444 q 367 438 366 431 q 365 423 363 416 q 361 408 358 401 q 355 395 352 390 q 349 386 345 386 q 341 386 336 387 q 332 389 326 392 q 320 394 313 396 q 306 397 296 397 q 279 397 258 383 q 236 369 215 343 q 194 318 177 283 q 159 249 151 208 l 112 12 q 111 8 109 6 q 106 3 102 1 q 97 -1 89 -2 q 81 -3 69 -3 q 57 -3 49 -2 q 42 -1 37 1 q 33 3 32 6 q 31 8 32 12 l 119 452 q 120 456 122 458 q 125 461 129 463 q 134 465 141 466 q 148 467 158 467 q 168 467 175 466 q 182 465 185 463 q 189 461 190 458 q 191 456 190 452 l 174 372 q 186 392 201 411 q 216 429 234 443 q 252 457 272 465 q 292 474 311 474 q 319 474 328 472 q 336 471 344 469 q 351 468 357 466 q 362 463 365 460 q 368 458 368 451 z"},"2":{"x_min":0,"x_max":507,"ha":507,"o":"m 415 51 q 415 48 414 43 q 414 38 412 32 q 411 26 408 21 q 406 15 403 10 q 400 6 396 3 q 392 0 387 0 l 38 0 q 32 0 27 1 q 23 3 21 6 q 18 8 17 12 q 16 16 16 21 q 16 25 16 33 q 17 41 20 50 q 23 60 29 69 q 35 79 45 87 l 208 230 q 246 263 273 292 q 301 321 320 346 q 338 372 350 393 q 361 414 367 432 q 374 449 375 464 q 377 478 377 489 q 377 501 374 514 q 370 528 361 540 q 352 551 335 559 q 319 567 293 567 q 266 567 240 559 q 215 550 194 540 q 174 530 160 522 q 146 513 141 513 q 136 513 133 518 q 130 523 130 532 q 130 536 131 541 q 131 545 132 551 q 133 556 135 562 q 136 567 138 572 q 141 577 143 581 q 146 586 149 589 q 155 595 171 604 q 187 612 209 621 q 231 629 259 635 q 286 641 315 641 q 362 641 393 628 q 424 615 442 595 q 459 575 467 551 q 474 528 474 507 q 474 487 471 466 q 468 445 459 422 q 451 398 435 373 q 420 347 395 317 q 371 287 336 252 q 301 217 252 176 l 130 71 l 400 71 q 408 71 412 65 q 415 59 415 51 z"},"{":{"x_min":0,"x_max":314,"ha":314,"o":"m 371 669 q 371 663 369 656 q 368 648 365 641 q 362 634 357 630 q 353 625 346 625 l 331 625 q 317 625 307 621 q 297 617 289 605 q 281 593 274 572 q 268 551 261 517 l 243 426 q 237 397 228 372 q 219 347 205 327 q 191 307 172 293 q 153 279 126 273 q 145 270 156 259 q 168 249 175 235 q 182 221 185 206 q 188 190 188 176 q 188 164 187 150 q 185 137 183 125 l 158 5 q 155 -15 153 -30 q 151 -45 151 -57 q 151 -79 158 -87 q 166 -95 179 -95 l 202 -95 q 209 -95 212 -99 q 215 -104 215 -110 q 215 -114 214 -119 q 213 -125 211 -131 q 209 -136 207 -142 q 205 -147 202 -150 q 200 -152 197 -153 q 193 -154 189 -155 q 184 -156 177 -157 q 171 -157 162 -157 q 137 -157 120 -151 q 104 -145 94 -133 q 84 -122 80 -106 q 76 -89 76 -69 q 76 -56 78 -35 q 80 -15 85 11 l 109 130 q 111 139 113 151 q 114 164 114 173 q 114 188 111 200 q 108 213 102 222 q 96 232 86 238 q 76 244 62 246 q 55 248 52 251 q 50 254 50 262 q 50 266 51 271 q 52 277 53 283 q 54 288 56 293 q 59 297 61 299 q 65 304 72 305 q 79 306 87 308 q 96 310 106 315 q 116 320 127 331 q 142 346 152 370 q 162 394 168 422 l 189 533 q 198 571 208 600 q 219 629 235 649 q 251 668 274 678 q 296 688 329 688 q 336 688 343 687 q 349 687 354 686 q 359 686 362 684 q 366 683 368 682 q 370 680 370 677 q 371 673 371 669 z"},"9":{"x_min":0,"x_max":507,"ha":507,"o":"m 77 381 q 77 408 83 438 q 88 468 101 497 q 113 525 133 552 q 152 578 181 598 q 209 618 246 629 q 283 641 330 641 q 374 641 405 628 q 435 615 455 592 q 474 569 483 537 q 491 505 491 468 q 491 449 489 418 q 487 388 481 351 q 475 313 463 272 q 452 231 434 191 q 416 151 390 115 q 365 79 330 51 q 294 23 249 7 q 203 -9 145 -9 q 128 -9 114 -8 q 99 -6 85 -4 q 72 -1 61 2 q 49 6 40 9 q 28 14 24 19 q 20 24 20 33 q 20 35 21 40 q 21 45 22 51 q 23 56 25 62 q 26 67 29 71 q 31 76 34 78 q 37 81 42 81 q 47 81 56 78 q 65 74 79 70 q 92 65 111 62 q 129 59 153 59 q 203 59 240 76 q 277 94 304 125 q 332 155 351 196 q 370 236 381 282 q 353 267 316 255 q 279 244 233 244 q 191 244 161 255 q 131 265 113 284 q 94 302 85 327 q 77 352 77 381 z m 162 392 q 162 374 167 358 q 172 343 183 333 q 194 322 212 316 q 230 310 255 310 q 273 310 292 313 q 311 316 329 322 q 347 328 363 335 q 380 342 395 351 q 401 385 404 413 q 407 440 407 462 q 407 522 384 548 q 360 574 315 574 q 289 574 268 566 q 246 558 229 544 q 212 530 200 511 q 187 493 179 473 q 170 452 166 431 q 162 411 162 392 z"}," ":{"x_min":0,"x_max":226,"ha":226,"o":""},"I":{"x_min":0,"x_max":252,"ha":252,"o":"m 125 12 q 125 9 122 6 q 119 3 114 1 q 108 0 100 -2 q 92 -3 80 -3 q 67 -3 60 -2 q 52 0 47 1 q 43 3 42 6 q 40 9 41 12 l 162 620 q 163 623 166 626 q 169 629 174 631 q 180 632 188 634 q 196 635 208 635 q 219 635 227 634 q 235 632 240 631 q 244 629 246 626 q 247 623 246 620 z"},"H":{"x_min":0,"x_max":623,"ha":623,"o":"m 496 12 q 495 9 492 6 q 490 3 485 1 q 479 0 471 -2 q 463 -3 451 -3 q 439 -3 431 -2 q 423 0 419 1 q 414 3 413 6 q 411 9 413 12 l 468 293 l 181 293 l 125 12 q 124 9 122 6 q 119 3 114 1 q 108 0 100 -2 q 92 -3 80 -3 q 67 -3 60 -2 q 52 0 47 1 q 43 3 42 6 q 40 9 41 12 l 162 620 q 163 623 166 626 q 168 629 174 631 q 179 632 187 634 q 195 635 208 635 q 219 635 227 634 q 235 632 240 631 q 244 629 245 626 q 247 623 246 620 l 196 366 l 483 366 l 534 620 q 534 623 537 626 q 540 629 545 631 q 550 632 558 634 q 566 635 579 635 q 591 635 599 634 q 606 632 611 631 q 616 629 617 626 q 618 623 617 620 z"},"4":{"x_min":0,"x_max":507,"ha":507,"o":"m 470 196 q 470 192 469 187 q 469 182 467 176 q 466 170 464 165 q 461 159 458 155 q 455 150 451 148 q 447 145 443 145 l 372 145 l 345 12 q 344 8 342 6 q 339 3 334 1 q 329 -1 321 -2 q 312 -3 301 -3 q 289 -3 281 -2 q 273 -1 269 1 q 265 3 264 6 q 262 8 264 12 l 290 145 l 29 145 q 19 145 15 149 q 12 154 12 163 q 12 166 12 171 q 13 177 14 183 q 15 189 17 197 q 19 204 21 210 q 24 217 27 224 q 30 230 35 235 l 339 620 q 342 624 348 626 q 354 629 362 631 q 370 633 381 634 q 392 635 407 635 q 423 635 435 634 q 446 632 454 630 q 461 628 464 625 q 467 622 467 618 l 386 214 l 457 214 q 464 214 467 209 q 470 204 470 196 z m 372 557 l 371 557 l 100 214 l 304 214 z"},"~":{"x_min":0,"x_max":498,"ha":498,"o":"m 521 523 q 521 493 511 465 q 501 438 484 417 q 466 396 441 385 q 417 373 386 373 q 356 373 336 381 q 316 390 302 402 q 288 415 278 430 q 268 445 257 458 q 247 470 234 479 q 221 487 202 487 q 186 487 173 480 q 161 473 153 461 q 146 450 141 435 q 136 419 135 402 q 135 394 126 391 q 118 388 102 388 q 83 388 77 392 q 72 395 72 402 q 72 433 80 460 q 88 487 105 508 q 123 528 148 541 q 173 553 208 553 q 237 553 257 545 q 277 536 291 523 q 306 511 316 496 q 327 481 338 469 q 348 456 360 448 q 373 439 390 439 q 407 439 418 446 q 430 452 439 464 q 447 475 452 491 q 456 506 457 525 q 458 533 466 535 q 475 538 490 538 q 500 538 505 537 q 511 537 514 535 q 518 533 519 530 q 521 527 521 523 z"},"D":{"x_min":0,"x_max":615,"ha":615,"o":"m 596 404 q 596 373 592 338 q 587 304 578 269 q 568 235 553 202 q 538 168 516 138 q 495 108 466 83 q 438 58 401 39 q 364 21 319 10 q 274 0 211 0 l 71 0 q 65 0 59 2 q 54 3 50 7 q 46 11 44 18 q 43 24 45 34 l 158 598 q 161 617 173 624 q 184 632 199 632 l 332 632 q 405 632 453 616 q 500 601 532 572 q 564 542 580 500 q 596 458 596 404 z m 507 397 q 507 433 497 463 q 487 494 466 515 q 444 537 411 550 q 377 562 322 562 l 234 562 l 136 70 l 223 70 q 283 70 323 85 q 363 99 394 124 q 424 148 446 181 q 467 214 481 250 q 495 286 501 324 q 507 362 507 397 z"},"^":{"x_min":0,"x_max":498,"ha":498,"o":"m 455 305 q 458 295 457 290 q 456 284 452 281 q 447 278 438 278 q 429 277 416 277 q 402 277 394 278 q 386 278 382 280 q 377 282 375 285 q 374 288 373 292 l 313 561 l 312 560 l 151 292 q 148 288 145 285 q 141 282 135 280 q 129 278 120 278 q 112 277 99 277 q 85 277 77 278 q 69 278 66 281 q 63 285 65 290 q 66 295 72 305 l 273 621 q 276 625 281 629 q 285 632 292 634 q 298 636 307 637 q 316 638 328 638 q 340 638 349 637 q 357 636 363 634 q 369 632 372 629 q 375 625 376 621 z"},"0":{"x_min":0,"x_max":507,"ha":507,"o":"m 504 452 q 504 430 502 399 q 499 368 493 332 q 487 296 477 258 q 467 219 453 183 q 439 146 420 113 q 400 80 375 55 q 347 26 306 8 q 265 -9 210 -9 q 165 -9 132 3 q 99 16 78 40 q 57 64 47 99 q 38 135 38 180 q 38 202 40 233 q 43 264 49 300 q 55 335 65 374 q 75 412 89 449 q 104 486 123 519 q 142 552 167 577 q 182 592 199 604 q 217 616 238 624 q 259 632 282 637 q 306 641 332 641 q 378 641 411 628 q 444 616 465 592 q 485 567 495 532 q 504 497 504 452 z m 419 451 q 419 513 396 542 q 373 572 322 572 q 293 572 270 562 q 247 552 227 533 q 208 514 192 485 q 177 456 166 423 q 154 389 146 354 q 138 318 133 285 q 128 252 125 225 q 123 198 123 181 q 123 119 146 89 q 170 60 220 60 q 250 60 273 70 q 296 80 315 99 q 334 118 349 147 q 365 176 376 209 q 388 243 396 278 q 404 313 409 346 q 415 379 417 406 q 419 434 419 451 z"},"F":{"x_min":0,"x_max":459,"ha":459,"o":"m 491 615 q 491 612 491 607 q 491 603 490 596 q 488 590 486 584 q 484 578 481 572 q 479 567 475 564 q 471 561 466 561 l 235 561 l 192 346 l 411 346 q 417 346 419 342 q 422 337 422 330 q 422 326 421 321 q 421 316 420 310 q 418 305 417 298 q 415 292 412 287 q 409 282 405 279 q 401 276 396 276 l 178 276 l 125 13 q 125 9 122 6 q 119 3 114 1 q 109 0 101 -2 q 92 -3 80 -3 q 68 -3 60 -2 q 52 0 47 1 q 43 3 42 6 q 40 9 41 13 l 158 598 q 162 617 173 624 q 185 632 196 632 l 480 632 q 487 632 489 627 q 491 623 491 615 z"},"`":{"x_min":0,"x_max":291,"ha":291,"o":"m 296 554 q 300 548 301 544 q 301 541 299 538 q 296 536 289 534 q 283 533 272 533 q 262 533 256 533 q 250 534 245 535 q 241 537 237 540 q 234 543 230 548 l 147 662 q 144 667 143 671 q 143 675 147 678 q 150 681 159 683 q 167 685 182 685 q 193 685 201 684 q 209 683 214 681 q 220 679 223 676 q 227 672 230 667 z m 0 464 z"},"k":{"x_min":0,"x_max":455,"ha":455,"o":"m 462 453 q 462 447 458 441 q 454 435 442 423 l 251 260 l 382 39 q 387 30 389 24 q 391 18 391 14 q 391 10 389 7 q 387 3 382 1 q 377 0 368 -2 q 360 -3 347 -3 q 333 -3 326 -2 q 318 -1 313 0 q 308 2 306 5 q 303 8 301 13 l 161 256 l 112 12 q 111 8 109 6 q 106 3 101 1 q 96 -1 88 -2 q 80 -3 68 -3 q 57 -3 49 -2 q 42 -1 37 1 q 33 2 32 5 q 30 8 31 12 l 162 665 q 163 668 165 671 q 167 674 172 676 q 177 678 185 679 q 193 680 206 680 q 217 680 225 679 q 232 678 237 676 q 241 674 242 671 q 243 668 242 665 l 163 267 l 366 451 q 370 456 375 459 q 380 462 386 464 q 393 465 401 466 q 410 467 421 467 q 433 467 441 466 q 449 465 454 464 q 458 462 460 459 q 462 457 462 453 z"},"u":{"x_min":0,"x_max":514,"ha":514,"o":"m 396 12 q 396 8 394 5 q 391 2 387 1 q 382 -1 375 -2 q 368 -3 358 -3 q 348 -3 342 -2 q 335 -1 331 1 q 328 2 326 5 q 325 8 326 12 l 342 95 q 334 78 318 60 q 301 42 278 26 q 255 10 228 0 q 201 -9 173 -9 q 140 -9 117 0 q 95 9 81 25 q 67 41 61 62 q 55 84 55 110 q 55 126 57 143 q 59 160 62 177 l 117 452 q 118 456 120 458 q 123 461 128 463 q 133 465 141 466 q 149 467 161 467 q 172 467 180 466 q 188 465 192 463 q 196 461 197 458 q 198 456 198 452 l 144 180 q 141 167 140 153 q 138 140 138 125 q 138 111 141 99 q 144 87 150 78 q 157 69 167 64 q 178 60 193 60 q 219 60 246 74 q 273 89 296 116 q 320 142 338 178 q 356 215 365 258 l 404 452 q 404 456 407 458 q 410 461 415 463 q 420 465 428 466 q 436 467 448 467 q 459 467 467 466 q 475 465 479 463 q 483 461 484 458 q 485 456 485 452 z"},"]":{"x_min":0,"x_max":307,"ha":307,"o":"m 144 -122 q 140 -142 129 -149 q 117 -156 106 -156 l -19 -156 q -23 -156 -26 -153 q -29 -149 -29 -142 q -29 -139 -28 -135 q -27 -130 -27 -125 q -26 -121 -24 -115 q -22 -110 -20 -106 q -17 -102 -14 -100 q -11 -97 -7 -97 l 72 -97 l 216 624 l 137 624 q 132 624 129 627 q 127 630 127 637 q 127 640 127 644 q 128 649 129 654 q 130 659 132 665 q 133 670 136 674 q 138 678 141 680 q 145 683 149 683 l 274 683 q 280 683 285 681 q 290 680 294 676 q 297 671 299 665 q 300 658 298 649 z"},"U":{"x_min":0,"x_max":642,"ha":642,"o":"m 559 230 q 547 170 522 125 q 497 81 460 51 q 423 21 377 6 q 332 -9 278 -9 q 221 -9 179 6 q 138 21 113 52 q 87 83 80 128 q 72 173 84 233 l 161 619 q 162 623 164 626 q 167 629 172 631 q 178 632 186 634 q 194 635 206 635 q 218 635 226 634 q 234 632 239 631 q 243 629 244 626 q 246 623 245 619 l 168 234 q 160 191 163 159 q 167 127 182 105 q 197 84 224 73 q 250 62 288 62 q 324 62 355 74 q 386 85 410 107 q 435 128 451 160 q 468 192 477 233 l 554 619 q 554 623 557 626 q 560 629 565 631 q 570 632 578 634 q 586 635 598 635 q 610 635 618 634 q 625 632 630 631 q 635 629 636 626 q 638 623 637 619 z"},"o":{"x_min":0,"x_max":513,"ha":513,"o":"m 477 306 q 477 270 470 232 q 463 195 449 160 q 436 125 414 94 q 393 63 364 41 q 334 18 298 4 q 261 -9 215 -9 q 168 -9 135 2 q 102 13 80 35 q 59 56 48 87 q 38 119 38 158 q 38 194 45 232 q 51 270 65 304 q 80 339 101 370 q 122 401 151 424 q 180 447 217 460 q 254 474 299 474 q 346 474 380 462 q 413 451 435 429 q 457 408 467 376 q 477 345 477 306 z m 392 301 q 392 326 387 345 q 382 365 370 378 q 358 392 339 399 q 319 406 292 406 q 263 406 239 396 q 215 385 196 367 q 177 350 163 326 q 149 302 140 275 q 131 248 127 219 q 123 190 123 163 q 123 139 128 119 q 133 100 145 86 q 157 72 176 65 q 195 58 223 58 q 252 58 276 68 q 300 79 319 97 q 337 115 351 139 q 365 163 374 190 q 383 217 388 246 q 392 274 392 301 z"},"N":{"x_min":0,"x_max":645,"ha":645,"o":"m 521 35 q 520 25 516 18 q 511 11 506 7 q 500 2 494 0 q 487 -1 481 -1 l 449 -1 q 437 -1 428 1 q 419 4 412 11 q 406 19 401 30 q 396 42 390 59 l 271 396 q 259 432 247 468 q 235 503 224 540 l 223 540 q 216 500 209 460 q 202 420 194 381 l 121 13 q 120 9 117 6 q 114 3 109 1 q 104 0 96 -2 q 88 -3 77 -3 q 65 -3 58 -2 q 50 0 46 1 q 42 3 41 6 q 40 9 41 13 l 157 596 q 161 615 174 624 q 186 632 199 632 l 237 632 q 249 632 258 629 q 267 627 273 621 q 279 614 284 604 q 289 594 295 579 l 415 237 q 426 206 437 174 q 448 142 458 110 l 459 110 q 466 150 474 193 q 482 236 490 276 l 559 618 q 560 622 562 625 q 565 627 570 629 q 575 631 582 632 q 590 633 602 633 q 613 633 620 632 q 628 631 632 629 q 636 627 638 625 q 639 622 639 618 z"},"+":{"x_min":0,"x_max":498,"ha":498,"o":"m 477 297 q 477 294 476 290 q 475 285 474 279 q 473 273 470 267 q 468 261 465 257 q 462 252 458 249 q 454 246 449 246 l 289 246 l 253 68 q 252 64 250 62 q 248 59 243 57 q 238 55 231 54 q 224 53 214 53 q 204 53 197 54 q 190 55 187 57 q 183 59 182 62 q 180 64 181 68 l 217 246 l 57 246 q 51 246 47 250 q 43 254 43 265 q 43 268 44 273 q 44 278 46 284 q 47 290 49 295 q 51 301 54 305 q 57 310 61 313 q 65 316 70 316 l 230 316 l 266 494 q 267 498 270 501 q 272 504 277 506 q 281 508 289 510 q 296 511 306 511 q 316 511 323 510 q 329 508 333 506 q 337 504 338 501 q 339 498 338 494 l 303 316 l 463 316 q 470 316 473 311 q 477 307 477 297 z"},"G":{"x_min":0,"x_max":631,"ha":631,"o":"m 625 563 q 625 560 624 554 q 623 549 622 544 q 621 538 619 532 q 617 526 614 521 q 612 517 609 514 q 606 511 603 511 q 595 511 583 520 q 570 529 550 540 q 529 551 499 560 q 469 569 428 569 q 384 569 346 556 q 309 543 277 520 q 245 498 220 467 q 195 436 178 399 q 161 363 152 323 q 143 283 143 242 q 143 199 155 166 q 167 133 191 110 q 214 88 248 76 q 281 65 322 65 q 352 65 385 72 q 418 79 446 94 l 483 277 l 337 277 q 331 277 328 281 q 325 285 325 293 q 325 296 325 302 q 326 308 327 313 q 329 319 331 325 q 333 331 336 336 q 339 340 343 343 q 346 346 351 346 l 551 346 q 565 346 571 336 q 577 327 574 312 l 525 68 q 523 59 520 53 q 517 48 513 43 q 508 39 490 31 q 473 22 446 13 q 418 4 385 -2 q 351 -9 313 -9 q 250 -9 202 8 q 153 24 121 55 q 88 86 71 131 q 54 175 54 231 q 54 284 66 334 q 78 385 100 430 q 123 476 156 514 q 188 553 231 581 q 274 608 325 625 q 376 641 436 641 q 470 641 500 635 q 530 628 553 620 q 577 611 593 601 q 609 591 615 585 q 621 580 623 575 q 625 570 625 563 z"},"q":{"x_min":0,"x_max":514,"ha":514,"o":"m 362 -162 q 361 -166 358 -169 q 356 -172 351 -174 q 346 -176 338 -177 q 330 -178 318 -178 q 307 -178 299 -177 q 292 -176 287 -174 q 283 -172 282 -169 q 280 -166 281 -162 l 313 -3 q 315 9 319 22 q 322 36 326 49 q 330 62 333 73 q 336 85 340 94 q 332 77 315 59 q 298 41 275 25 q 253 10 226 0 q 199 -9 171 -9 q 137 -9 112 2 q 86 13 71 34 q 55 55 47 84 q 40 113 40 149 q 40 176 45 211 q 50 246 61 281 q 73 317 91 352 q 109 387 135 414 q 161 440 195 457 q 229 474 273 474 q 316 474 347 456 q 378 438 403 408 l 412 452 q 414 460 423 464 q 433 467 452 467 q 462 467 469 466 q 475 465 479 463 q 483 461 484 458 q 485 456 484 452 z m 381 337 q 358 371 332 387 q 305 404 272 404 q 245 404 223 391 q 201 378 185 357 q 168 335 157 309 q 145 282 138 254 q 130 226 127 200 q 124 174 124 155 q 124 107 141 83 q 159 60 192 60 q 219 60 246 74 q 273 89 296 116 q 320 142 338 178 q 356 214 365 256 z"},"d":{"x_min":0,"x_max":514,"ha":514,"o":"m 397 12 q 396 4 387 0 q 378 -3 357 -3 q 347 -3 341 -2 q 334 -1 331 1 q 327 2 325 5 q 324 8 325 12 l 341 94 q 334 78 318 60 q 301 42 279 26 q 256 11 228 1 q 200 -9 171 -9 q 143 -9 121 -2 q 100 6 86 19 q 71 31 62 48 q 53 65 48 83 q 43 101 41 119 q 40 137 40 152 q 40 180 45 215 q 50 250 62 286 q 74 321 92 355 q 110 389 136 415 q 162 441 196 458 q 230 474 273 474 q 294 474 312 469 q 331 464 346 456 q 361 448 374 437 q 387 426 397 414 l 447 663 q 447 666 450 669 q 452 672 457 674 q 462 676 470 677 q 478 678 490 678 q 501 678 509 677 q 517 676 521 674 q 525 672 527 669 q 528 666 527 663 z m 381 335 q 358 369 332 387 q 305 404 272 404 q 246 404 225 392 q 205 380 188 360 q 171 340 159 314 q 147 289 140 261 q 132 233 128 207 q 124 180 124 157 q 124 110 140 85 q 156 60 192 60 q 219 60 246 74 q 273 89 296 115 q 320 141 338 176 q 356 212 365 254 z"},"1":{"x_min":0,"x_max":507,"ha":507,"o":"m 416 50 q 416 47 415 42 q 414 37 413 31 q 412 25 410 20 q 408 15 405 10 q 402 5 398 3 q 395 0 390 0 l 60 0 q 54 0 50 5 q 46 10 46 18 q 46 21 47 25 q 48 30 49 35 q 50 41 52 46 q 55 52 58 57 q 61 61 64 64 q 68 67 73 67 l 205 67 l 300 543 l 163 471 q 155 467 150 466 q 146 464 142 466 q 139 467 138 471 q 137 475 137 481 q 137 486 138 494 q 139 502 142 510 q 145 519 149 526 q 153 533 160 537 l 325 630 q 327 632 330 633 q 333 634 338 635 q 342 636 348 636 q 354 636 363 636 q 375 636 383 635 q 390 634 394 633 q 398 631 399 628 q 400 625 399 623 l 289 67 l 403 67 q 410 67 413 63 q 416 58 416 50 z"},"5":{"x_min":0,"x_max":507,"ha":507,"o":"m 446 241 q 446 209 438 179 q 431 148 416 120 q 401 92 378 69 q 355 45 324 28 q 293 10 255 0 q 216 -9 168 -9 q 147 -9 126 -7 q 106 -4 88 0 q 70 5 54 11 q 39 17 27 22 q 21 26 17 31 q 14 36 14 44 q 14 47 15 52 q 15 57 16 63 q 18 69 19 75 q 21 82 23 87 q 26 92 29 96 q 32 99 37 99 q 42 99 51 93 q 61 87 77 80 q 94 73 117 66 q 141 60 174 60 q 219 60 254 74 q 288 89 311 113 q 333 136 345 167 q 356 198 356 233 q 356 250 350 266 q 344 281 328 293 q 313 305 288 311 q 263 318 226 318 q 190 318 166 315 q 142 312 123 312 q 110 312 105 318 q 101 325 104 343 l 156 600 q 159 616 168 624 q 177 632 191 632 l 471 632 q 478 632 481 627 q 485 623 485 614 q 485 610 484 605 q 483 600 482 593 q 480 587 478 581 q 476 575 473 570 q 470 565 466 562 q 462 559 457 559 l 221 559 l 186 381 q 203 383 217 384 q 231 385 250 385 q 303 385 341 374 q 378 362 401 343 q 425 323 435 297 q 446 270 446 241 z"}}}
